<svg width="30" height="31" viewBox="0 0 30 31" fill="none" xmlns="http://www.w3.org/2000/svg">
<path d="M28.3801 13.156C28.0321 12.196 27.6001 11.26 27.0361 10.36C26.4781 9.46595 25.7701 8.60195 24.8581 7.88195C23.9521 7.16795 22.7641 6.62795 21.5041 6.52595L21.0361 6.50195C20.8741 6.50795 20.6941 6.50795 20.5261 6.52595C20.1841 6.56195 19.8601 6.63995 19.5541 6.72995C18.9361 6.92195 18.3961 7.20995 17.9221 7.52195C17.0701 8.08595 16.3921 8.73995 15.7801 9.41195C15.7861 9.42395 15.7981 9.42995 15.8041 9.44195L15.9361 9.60995C16.2421 10.012 16.9081 10.936 17.5021 11.932C18.2401 11.212 19.2001 10.342 19.5961 10.09C19.8961 9.90395 20.1901 9.75995 20.4541 9.68195C20.5921 9.64595 20.7181 9.61595 20.8381 9.60995C20.8981 9.59795 20.9521 9.60395 21.0181 9.59795L21.2461 9.60995C21.8341 9.66395 22.4101 9.90395 22.9561 10.324C24.0421 11.188 24.9001 12.658 25.4581 14.212C26.0281 15.772 26.3521 17.476 26.3701 19.12C26.3701 19.9059 26.2681 20.662 26.0281 21.2859C25.7941 21.9159 25.2001 22.1559 24.5281 22.1559C23.5501 22.1559 22.8421 21.736 22.2721 21.148C21.6481 20.494 21.0601 19.7619 20.4961 18.9819C20.0281 18.3279 19.5721 17.65 19.1401 16.96C18.3781 15.724 17.3581 14.158 16.6501 12.85L15.0001 10.36C14.8141 10.126 14.6341 9.89195 14.4361 9.65795C13.7701 8.90195 13.0321 8.15795 12.0781 7.52195C11.6041 7.20995 11.0641 6.92195 10.4461 6.72995C10.1401 6.63995 9.81607 6.56195 9.47407 6.52595C9.36607 6.51395 9.25807 6.50795 9.15007 6.50795C9.08407 6.50795 9.02407 6.50195 8.96407 6.50195L8.49607 6.52595C7.23607 6.62795 6.04807 7.16795 5.14207 7.88195C4.23007 8.60195 3.52207 9.46595 2.96407 10.36C2.40007 11.26 1.96807 12.196 1.62007 13.156C0.942068 15.076 0.576068 17.062 0.570068 19.1139C0.576068 20.1819 0.714068 21.2919 1.14607 22.3959C1.56607 23.4759 2.35807 24.6219 3.61807 25.2579C4.23607 25.5759 4.93807 25.7439 5.61007 25.7439C6.34807 25.7619 7.05007 25.5519 7.60807 25.2819C8.73007 24.7239 9.50407 23.9859 10.2061 23.2419C11.5921 21.7359 12.6181 20.1039 13.5661 18.4419C13.8301 17.9859 14.0821 17.518 14.3281 17.044C14.2021 16.798 14.0761 16.54 13.9441 16.27C13.5721 15.652 13.1101 14.92 12.7741 14.41C12.2761 15.31 11.7601 16.186 11.2261 17.056C10.2721 18.568 9.24607 20.038 8.10007 21.2439C7.53007 21.832 6.90007 22.3479 6.34807 22.594C6.06607 22.7139 5.85007 22.7559 5.66407 22.7439C5.40607 22.7439 5.19007 22.6839 4.98607 22.5759C4.58407 22.3659 4.20607 21.9159 3.97207 21.2859C3.73207 20.662 3.63007 19.9059 3.63007 19.12C3.64807 17.476 3.97207 15.772 4.54207 14.212C5.10007 12.658 5.95807 11.188 7.04407 10.324C7.59007 9.90395 8.16607 9.66395 8.75407 9.60995L8.98207 9.59795C9.04807 9.60395 9.10207 9.59795 9.16207 9.60995C9.28207 9.61595 9.40807 9.64595 9.54607 9.68195C9.70207 9.72995 9.87007 9.79595 10.0441 9.88595C10.1641 9.94595 10.2841 10.012 10.4041 10.09C11.0041 10.474 11.5981 11.038 12.1561 11.662C12.5881 12.148 13.0021 12.688 13.4161 13.24L15.0001 15.694C15.4501 16.624 15.9181 17.5479 16.4341 18.4419C17.3821 20.1039 18.4081 21.7359 19.7941 23.2419C20.2021 23.6799 20.6401 24.1119 21.1561 24.5019C21.5221 24.7899 21.9241 25.0479 22.3921 25.2819C22.9501 25.5519 23.6521 25.7619 24.3901 25.7439C25.0621 25.7439 25.7641 25.5759 26.3821 25.2579C27.6421 24.6219 28.4341 23.4759 28.8541 22.3959C29.2861 21.2919 29.4241 20.1819 29.4301 19.1139C29.4241 17.062 29.0581 15.076 28.3801 13.156Z" fill="white"/>
</svg>
