<svg width="130" height="65" viewBox="0 0 130 65" fill="none" xmlns="http://www.w3.org/2000/svg">
<g clip-path="url(#clip0_367_156)">
<path d="M16.4383 32.4366C15.9253 32.0425 15.3527 31.7329 14.7423 31.5195C14.0713 31.2848 13.365 31.1673 12.6543 31.1723H2.31421V45.7876H12.6486C13.3569 45.793 14.0612 45.6808 14.7329 45.4555C15.3444 45.2497 15.9175 44.9436 16.4289 44.5497C16.9111 44.1797 17.3125 43.7147 17.6085 43.1835C17.9002 42.6543 18.052 42.0593 18.0495 41.4549V35.5314C18.052 34.927 17.9002 34.332 17.6085 33.8028C17.3125 33.2716 16.9111 32.8066 16.4289 32.4366H16.4383ZM12.6392 43.9477H4.45496V33.0386H12.6486C13.0891 33.0338 13.5273 33.1027 13.9451 33.2424C14.3267 33.3705 14.684 33.5619 15.0023 33.8085C15.2873 34.0256 15.5252 34.2984 15.7015 34.6105C15.8585 34.8918 15.9403 35.2091 15.9389 35.5314V41.4549C15.9403 41.7772 15.8585 42.0944 15.7015 42.3758C15.5252 42.6879 15.2873 42.9607 15.0023 43.1778C14.684 43.4232 14.3274 43.6145 13.947 43.7439C13.5297 43.8832 13.0922 43.9521 12.6524 43.9477" fill="#588A3D"/>
<path d="M22.544 31.3459H20.4333V45.899H22.544V31.3459Z" fill="#588A3D"/>
<path d="M36.6981 39.6168H41.5977V41.653C41.6 41.9745 41.5175 42.2908 41.3584 42.5701C41.1821 42.8799 40.9464 43.1518 40.6649 43.3702C40.3456 43.6162 39.986 43.8046 39.6021 43.9269C39.1635 44.0668 38.7055 44.1362 38.2453 44.1326H30.4813C30.0333 44.136 29.5878 44.0666 29.1621 43.9269C28.7735 43.7978 28.4082 43.6066 28.0804 43.3608C27.7942 43.1505 27.5558 42.8816 27.3813 42.572C27.2253 42.2896 27.1442 41.9719 27.1457 41.6492V35.7238C27.1414 35.3942 27.2225 35.0691 27.3813 34.7803C27.5558 34.4701 27.7941 34.2006 28.0804 33.9896C28.4086 33.7445 28.7738 33.5534 29.1621 33.4235C29.5878 33.2838 30.0333 33.2144 30.4813 33.2178H43.1355V31.3534H30.4831C29.7659 31.3492 29.0528 31.4634 28.3725 31.6912C27.7463 31.8976 27.158 32.2055 26.6313 32.6026C26.14 32.9716 25.7306 33.4388 25.429 33.9745C25.1329 34.505 24.9784 35.1029 24.9805 35.7106V41.636C24.9794 42.2394 25.1339 42.8328 25.429 43.3589C25.731 43.8948 26.1403 44.3625 26.6313 44.7327C27.1585 45.1297 27.7492 45.434 28.3782 45.6328C29.0584 45.8512 29.7689 45.9601 30.4831 45.9555H38.2547C38.9739 45.9607 39.6895 45.8517 40.3747 45.6328C41.0036 45.4337 41.5942 45.1293 42.1216 44.7327C42.6121 44.362 43.0213 43.8944 43.3239 43.3589C43.6186 42.8327 43.7731 42.2393 43.7724 41.636V37.7524H36.7057L36.6981 39.6168Z" fill="#588A3D"/>
<path d="M48.1633 31.3459H46.032V45.899H48.1633V31.3459Z" fill="#588A3D"/>
<path d="M67.1869 31.7271H49.6726V33.5688H57.3556V45.8744H59.5039V33.5688H67.1869V31.7271Z" fill="#588A3D"/>
<path d="M76.4245 39.968H72.7649V41.8324H76.4245V39.968Z" fill="#588A3D"/>
<path d="M80.0144 34.1389C79.7678 33.7246 79.4603 33.35 79.1023 33.0274C78.7132 32.6717 78.2761 32.3725 77.8039 32.1386C77.3151 31.8942 76.8023 31.7013 76.2737 31.563C75.1729 31.2742 74.0164 31.2742 72.9156 31.563C72.3864 31.7013 71.873 31.8942 71.3835 32.1386C70.9157 32.3712 70.4805 32.6643 70.0889 33.0104C69.7249 33.3298 69.4227 33.7136 69.1975 34.1426L64.9556 42.4042C64.6811 42.8918 64.5158 43.4333 64.4713 43.9912C64.4491 44.2349 64.4768 44.4806 64.5526 44.7132C64.6284 44.9459 64.7508 45.1606 64.9123 45.3443C65.2552 45.75 65.7565 45.9557 66.4048 45.9557H68.4777V44.1158H66.6328C66.6328 44.0837 66.6328 44.046 66.6328 44.0007C66.662 43.7114 66.7609 43.4336 66.9211 43.1911L71.1687 34.9069C71.292 34.6713 71.4611 34.4627 71.6662 34.2936C71.9201 34.0712 72.2005 33.881 72.501 33.7275C72.824 33.5631 73.1648 33.4364 73.5167 33.3501C74.2224 33.1717 74.9613 33.1717 75.6669 33.3501C76.0246 33.4374 76.3715 33.564 76.7015 33.7275C77.0076 33.8793 77.2932 34.0695 77.5514 34.2936C77.758 34.4646 77.9279 34.6758 78.0508 34.9144L82.2984 43.1741C82.5433 43.6289 82.5716 43.8686 82.5678 43.9686C82.5678 44.029 82.5678 44.0762 82.5584 44.1158H80.7022V45.9557H82.7751C83.4234 45.9557 83.9246 45.75 84.2582 45.3556C84.422 45.1708 84.5465 44.9545 84.6239 44.7199C84.7014 44.4853 84.7302 44.2374 84.7086 43.9912C84.6657 43.4389 84.5132 42.9006 84.2601 42.408L80.0144 34.1389Z" fill="#588A3D"/>
<path d="M12.771 28.8438C14.4518 28.8676 16.1198 28.5476 17.6729 27.9035C19.226 27.2595 20.6314 26.3048 21.8033 25.0979L22.1387 24.762L20.5878 23.2109L20.2524 23.5468C19.2826 24.5485 18.119 25.3415 16.8326 25.8772C15.5462 26.4129 14.1641 26.6801 12.771 26.6623C11.3782 26.68 9.99646 26.4128 8.71037 25.8771C7.42429 25.3414 6.26094 24.5484 5.29157 23.5468C4.29089 22.576 3.49876 21.4108 2.96376 20.1225C2.42876 18.8343 2.16216 17.4502 2.18032 16.0551C2.15863 14.6566 2.42335 13.2685 2.95813 11.9765C3.49292 10.6844 4.28642 9.51579 5.28969 8.54271C6.26294 7.54723 7.42778 6.75985 8.71371 6.22822C9.99964 5.69659 11.3799 5.43178 12.771 5.44981C14.1641 5.4323 15.5461 5.69956 16.8324 6.23526C18.1188 6.77096 19.2825 7.56382 20.2524 8.56536L20.5878 8.90125L22.1425 7.34442L21.7995 7.00664C19.2216 4.49495 16.1913 3.22118 12.771 3.22118C11.0889 3.19756 9.4197 3.51906 7.86632 4.16587C6.31295 4.81267 4.90825 5.7711 3.73877 6.98211C2.53436 8.16198 1.58191 9.5746 0.939212 11.1343C0.296515 12.6939 -0.0230234 14.3681 -1.23882e-05 16.0551C-0.0235165 17.7379 0.296103 19.4079 0.93929 20.9627C1.58248 22.5176 2.53571 23.9247 3.74066 25.0979C4.91202 26.3049 6.31714 27.2597 7.86992 27.9038C9.42271 28.5479 11.0905 28.8678 12.771 28.8438Z" fill="#588A3D"/>
<path d="M38.4808 21.2803L41.2472 28.8437H43.5764L34.3162 3.30981H32.3318L23.0715 28.8437H25.4026L28.1238 21.2803H38.4808ZM28.9511 19.097L33.323 6.98204L37.6893 19.097H28.9511Z" fill="#588A3D"/>
<path d="M47.6317 6.69144L58.181 17.2118L68.6379 6.69898V28.8437H70.8635V3.30981H68.9149L58.1772 14.1057L47.3528 3.30981H45.4514V28.8437H47.6317V6.69144Z" fill="#588A3D"/>
<path d="M76.7902 17.1476H82.8205C83.7321 17.1602 84.6367 16.9866 85.4791 16.6375C86.3215 16.2884 87.084 15.7711 87.7201 15.1171C88.3732 14.4801 88.8898 13.7165 89.2384 12.873C89.587 12.0294 89.7604 11.1236 89.7478 10.2107C89.7589 9.295 89.585 8.38647 89.2366 7.53976C88.8881 6.69304 88.3723 5.92561 87.7201 5.2836C87.0876 4.62321 86.3263 4.10003 85.4834 3.74652C84.6406 3.39301 83.7342 3.21672 82.8205 3.22859H74.6099V28.8436H76.7902V17.1476ZM76.7902 5.44778H82.8205C83.4454 5.43749 84.0658 5.55654 84.6427 5.79748C85.2195 6.03842 85.7405 6.39605 86.173 6.84798C86.6243 7.2809 86.9813 7.80261 87.2216 8.38034C87.4619 8.95807 87.5803 9.57933 87.5693 10.2051C87.5824 10.8259 87.4669 11.4426 87.2301 12.0165C86.9933 12.5904 86.6405 13.1089 86.1937 13.5395C85.7566 13.9895 85.2313 14.3441 84.6508 14.5812C84.0703 14.8182 83.4472 14.9326 82.8205 14.9171H76.7902V5.44778Z" fill="#588A3D"/>
<path d="M122.127 15.3078V15.2852H120.172V15.3078C120.166 20.2027 118.462 24.9434 115.351 28.719C112.24 32.4947 107.916 35.0709 103.118 36.007V37.9979C108.441 37.0496 113.262 34.2572 116.737 30.1093C120.212 25.9613 122.12 20.722 122.127 15.3078Z" fill="#588A3D"/>
<path d="M130 15.3078V15.2852H128.046V15.3078C128.046 29.9212 117.182 42.04 103.118 43.9912V45.967C118.264 43.9969 130 30.9969 130 15.3021" fill="#588A3D"/>
<path d="M114.05 18.5856H112.043C111.216 21.827 109.208 24.6415 106.414 26.4754V28.7399C108.338 27.6901 110.015 26.2398 111.332 24.4866C112.649 22.7335 113.576 20.7181 114.05 18.5762" fill="#588A3D"/>
<path d="M99.123 28.6569C96.5227 28.6587 93.9786 27.899 91.8039 26.4714C89.6292 25.0438 87.9189 23.0105 86.8835 20.6219C85.8481 18.2333 85.5329 15.5937 85.9765 13.0279C86.4202 10.4622 87.6035 8.08239 89.3806 6.18148C91.1577 4.28057 93.4512 2.94154 95.9786 2.32925C98.506 1.71695 101.157 1.85812 103.605 2.73537C106.054 3.61263 108.192 5.18767 109.758 7.26659C111.324 9.34551 112.249 11.8376 112.418 14.4359H114.387C114.217 11.451 113.177 8.58135 111.396 6.1814C109.616 3.78146 107.172 1.95629 104.367 0.93127C101.563 -0.093751 98.5195 -0.273737 95.6137 0.413535C92.7079 1.10081 90.0668 2.62524 88.0164 4.7986C85.966 6.97196 84.5962 9.69908 84.076 12.6432C83.5559 15.5873 83.9082 18.6195 85.0895 21.3654C86.2708 24.1113 88.2293 26.4506 90.7232 28.0945C93.2172 29.7384 96.1373 30.6148 99.123 30.6157C100.216 30.6153 101.305 30.4963 102.372 30.2609V28.253C101.31 28.5213 100.218 28.6569 99.123 28.6569Z" fill="#A6A5A5"/>
<path d="M91.1799 44.0459L90.835 44.0233C90.2509 43.9777 89.6907 43.7713 89.2163 43.427C88.9962 43.2646 88.812 43.0584 88.6754 42.8212C88.5604 42.6243 88.4957 42.402 88.487 42.174C88.487 42.1608 88.487 42.1475 88.487 42.1343V31.3535H86.2068V42.1343C86.2063 42.6808 86.3514 43.2176 86.627 43.6893C86.903 44.1687 87.2759 44.5852 87.7219 44.9121C88.1894 45.2552 88.7085 45.5215 89.2596 45.7009C89.855 45.8993 90.4789 45.9988 91.1064 45.9953H100.457V44.029L91.1799 44.0459Z" fill="#588A3D"/>
<path d="M104.699 19.1499C104.495 19.152 104.298 19.0743 104.15 18.9333C104.003 18.7924 103.916 18.5993 103.908 18.395C103.908 17.7119 103.606 16.9741 102.432 17.3628C100.382 18.0478 99.6997 21.4672 96.9672 21.4672C96.7238 21.4599 96.4873 21.384 96.285 21.2483C96.5512 21.5414 96.8539 21.7989 97.1858 22.0144C97.9012 22.4692 98.7153 22.7452 99.5594 22.8191C100.404 22.893 101.253 22.7626 102.036 22.439C103.134 21.9976 104.182 21.4422 105.165 20.7822C106.646 19.7915 105.636 19.1612 104.699 19.148" fill="#287486"/>
<path d="M106.893 7.1046C104.398 7.20187 101.927 7.6276 99.5433 8.37083C99.5072 8.37836 99.47 8.37836 99.434 8.37083C97.6252 8.06908 95.8005 7.8725 93.969 7.78206C93.7854 7.76582 93.6009 7.80047 93.4357 7.88223C93.2705 7.96398 93.1309 8.08967 93.0322 8.24555C92.9336 8.40144 92.8797 8.58149 92.8764 8.76601C92.8731 8.95053 92.9205 9.13241 93.0136 9.29171C93.4304 9.93697 93.6469 10.6915 93.6355 11.46C92.7574 12.1719 92.049 13.071 91.562 14.0919C91.0749 15.1127 90.8215 16.2295 90.8201 17.3608C90.8201 20.7802 92.4671 23.5164 96.285 23.5164C96.8371 23.5161 97.3888 23.4865 97.9377 23.4277C96.1682 22.5653 95.601 21.4652 95.601 20.0971C95.601 18.5648 96.7825 17.6212 98.3334 16.6437C98.4427 17.3268 99.14 17.6212 99.5489 17.074C99.994 16.4932 100.373 15.8647 100.68 15.2001C101.286 14.8149 101.87 14.3947 102.428 13.9414L103.282 13.2564C103.311 13.2313 103.333 13.1991 103.346 13.1631C103.359 13.127 103.362 13.0882 103.356 13.0503C103.35 13.0125 103.334 12.9769 103.31 12.9469C103.286 12.9169 103.255 12.8935 103.22 12.879C102.614 12.6209 102.092 12.1999 101.711 11.6625C101.33 11.1252 101.106 10.4927 101.062 9.83519C101.224 10.5253 101.587 11.1514 102.106 11.6336C102.529 12.0136 103.08 12.2176 103.648 12.204C104.216 12.1903 104.757 11.9599 105.161 11.56C106.772 9.97861 107.209 9.01431 107.209 7.4556C107.218 7.37081 107.193 7.28591 107.14 7.21944C107.087 7.15297 107.009 7.11032 106.925 7.10083H106.889L106.893 7.1046ZM103.795 9.83708C103.659 9.83745 103.527 9.79754 103.414 9.72242C103.301 9.64729 103.213 9.54033 103.161 9.41508C103.109 9.28984 103.095 9.15195 103.122 9.0189C103.148 8.88584 103.213 8.76361 103.309 8.6677C103.405 8.57179 103.527 8.50651 103.66 8.48014C103.793 8.45377 103.93 8.46749 104.055 8.51957C104.18 8.57165 104.287 8.65974 104.362 8.77268C104.437 8.88562 104.477 9.01832 104.477 9.15396C104.477 9.33513 104.405 9.50889 104.277 9.63699C104.149 9.7651 103.976 9.83708 103.795 9.83708Z" fill="#287486"/>
<path d="M45.0688 56.4912C44.7278 56.4961 44.3894 56.4319 44.0738 56.3025C43.7785 56.1815 43.5091 56.0047 43.2805 55.7817C43.0536 55.5569 42.8737 55.2891 42.7514 54.994C42.6291 54.6988 42.5668 54.3821 42.5681 54.0626V54.0437C42.567 53.7197 42.6311 53.3988 42.7566 53.1002C42.8785 52.8068 43.0564 52.5401 43.2805 52.3151C43.5097 52.0888 43.7804 51.9088 44.0776 51.7849C44.3944 51.6552 44.7341 51.591 45.0764 51.5962C45.4652 51.5843 45.8517 51.6604 46.207 51.8189C46.504 51.965 46.7717 52.1646 46.9966 52.4076L46.3126 53.1285C46.1511 52.9642 45.9686 52.8221 45.7698 52.7058C45.5526 52.5902 45.309 52.5336 45.0632 52.5416C44.868 52.5383 44.6747 52.5796 44.4978 52.6624C44.3325 52.7387 44.1839 52.8471 44.0606 52.9813C43.9352 53.1207 43.8374 53.2827 43.7723 53.4587C43.7028 53.6439 43.6677 53.8402 43.6687 54.038V54.055C43.667 54.256 43.7022 54.4555 43.7723 54.6438C43.8385 54.8225 43.9397 54.9861 44.0701 55.125C44.1986 55.2629 44.3537 55.3733 44.5261 55.4496C44.7097 55.532 44.9091 55.5732 45.1103 55.5703C45.3498 55.5754 45.5866 55.5188 45.7981 55.4062C46.0045 55.2904 46.1946 55.1476 46.3635 54.9816L47.0287 55.6232C46.7966 55.881 46.5218 56.0967 46.2165 56.261C45.8566 56.4362 45.4593 56.5204 45.0594 56.5063" fill="#588A3D"/>
<path d="M50.2965 56.491C49.9482 56.4955 49.6025 56.4313 49.2789 56.3023C48.9777 56.1817 48.7021 56.005 48.4667 55.7815C48.2366 55.5584 48.0538 55.2912 47.9292 54.9959C47.8045 54.7005 47.7406 54.383 47.7411 54.0624V54.0435C47.7371 53.7162 47.8013 53.3916 47.9296 53.0905C48.0579 52.7987 48.2409 52.5341 48.4686 52.3112C48.7027 52.0837 48.9785 51.9037 49.2808 51.7809C49.6065 51.6503 49.9551 51.5862 50.3059 51.5922C50.6573 51.5872 51.0062 51.6513 51.3329 51.7809C51.6354 51.9007 51.9114 52.079 52.1451 52.3055C52.3718 52.5266 52.553 52.7901 52.6784 53.0811C52.8055 53.3792 52.8697 53.7005 52.8669 54.0246V54.0416C52.8703 54.3658 52.8061 54.6872 52.6784 54.9851C52.5501 55.277 52.3672 55.5415 52.1395 55.7645C51.9039 55.992 51.6269 56.172 51.3235 56.2948C50.9956 56.4247 50.6453 56.4888 50.2927 56.4835L50.2965 56.491ZM50.3097 55.5399C50.517 55.5438 50.7228 55.5025 50.9127 55.4192C51.0865 55.3443 51.2431 55.2345 51.3727 55.0965C51.5024 54.9586 51.6024 54.7954 51.6665 54.6172C51.7324 54.4357 51.7662 54.2441 51.7664 54.051V54.0322C51.768 53.8313 51.7309 53.632 51.6571 53.4453C51.5891 53.267 51.4864 53.104 51.3551 52.9657C51.2238 52.8274 51.0664 52.7165 50.892 52.6395C50.618 52.5182 50.3136 52.4838 50.0195 52.5408C49.7254 52.5978 49.4558 52.7435 49.2468 52.9584C49.1172 53.095 49.0183 53.2578 48.9566 53.4359C48.8892 53.6215 48.8554 53.8177 48.8568 54.0152V54.0322C48.8551 54.2322 48.8915 54.4308 48.9642 54.6172C49.0351 54.7946 49.1387 54.9572 49.2695 55.0965C49.4021 55.2418 49.5637 55.3577 49.7439 55.4367C49.924 55.5157 50.1187 55.556 50.3153 55.555" fill="#588A3D"/>
<path d="M53.9636 51.6791H55.0755V52.417C55.1543 52.3045 55.2412 52.1979 55.3355 52.0981C55.4334 51.9967 55.5436 51.908 55.6634 51.8339C55.7904 51.7525 55.928 51.689 56.0723 51.6452C56.2364 51.5977 56.4066 51.5748 56.5774 51.5772C56.811 51.563 57.0449 51.5994 57.2632 51.6841C57.4814 51.7688 57.6788 51.8997 57.8419 52.0679C58.1537 52.4349 58.3135 52.9076 58.2885 53.3888V56.3817H57.1748V53.7172C57.1953 53.4105 57.0998 53.1073 56.9072 52.868C56.8108 52.7663 56.6934 52.687 56.5632 52.6355C56.433 52.584 56.2931 52.5616 56.1534 52.5698C56.0094 52.5642 55.8659 52.5887 55.7319 52.6417C55.5979 52.6946 55.4764 52.7749 55.3751 52.8774C55.2708 52.9932 55.1907 53.1285 55.1392 53.2756C55.0878 53.4227 55.0661 53.5786 55.0755 53.7342V56.376H53.9636V51.6791Z" fill="#588A3D"/>
<path d="M61.7916 56.491C61.459 56.4932 61.1291 56.4323 60.8192 56.3118C60.5277 56.1989 60.2613 56.0296 60.0352 55.8136C59.8099 55.5944 59.631 55.3319 59.5095 55.0418C59.3806 54.727 59.3165 54.3894 59.321 54.0492V54.0322C59.3179 53.7064 59.3768 53.383 59.4944 53.0792C59.604 52.7891 59.7699 52.5236 59.9825 52.298C60.1999 52.067 60.463 51.8839 60.755 51.7604C61.047 51.6369 61.3615 51.5758 61.6785 51.5809C62.0257 51.5733 62.3701 51.6435 62.6867 51.7866C62.9647 51.9151 63.2106 52.1039 63.4065 52.3395C63.6026 52.5769 63.7499 52.8507 63.84 53.1453C63.9389 53.4577 63.9885 53.7837 63.987 54.1114C63.987 54.1592 63.987 54.2083 63.987 54.2586C63.987 54.3096 63.987 54.3605 63.9738 54.4153H60.4216C60.4611 54.7593 60.6294 55.0756 60.8927 55.3003C61.152 55.5081 61.4765 55.6171 61.8085 55.6079C62.0535 55.6139 62.2967 55.5655 62.5208 55.4663C62.7387 55.3575 62.9388 55.2162 63.1145 55.0474L63.7608 55.6135C63.5315 55.8807 63.2508 56.099 62.9354 56.2551C62.5783 56.4242 62.1865 56.507 61.7916 56.4967V56.491ZM62.8864 53.7076C62.869 53.5413 62.8291 53.3781 62.7677 53.2226C62.7108 53.0774 62.627 52.9443 62.5208 52.8301C62.4111 52.7133 62.2781 52.6208 62.1304 52.5587C61.9827 52.4966 61.8236 52.4663 61.6634 52.4697C61.5067 52.4649 61.3508 52.4928 61.2054 52.5516C61.0601 52.6104 60.9286 52.6988 60.8192 52.8112C60.5899 53.0576 60.4475 53.3725 60.414 53.7076H62.8864Z" fill="#588A3D"/>
<path d="M67.2926 56.4912C66.9516 56.4961 66.6131 56.4319 66.2976 56.3025C66.0028 56.1814 65.734 56.0046 65.5061 55.7817C65.2806 55.5615 65.1024 55.2976 64.9822 55.0061C64.8559 54.7077 64.7918 54.3866 64.7937 54.0626V54.0437C64.7927 53.7197 64.8568 53.3988 64.9822 53.1002C65.1027 52.8061 65.2808 52.5392 65.5061 52.3151C65.7347 52.088 66.0055 51.9078 66.3032 51.7849C66.62 51.655 66.9597 51.5908 67.302 51.5962C67.6908 51.5843 68.0773 51.6604 68.4327 51.8189C68.7291 51.9651 68.9961 52.1646 69.2204 52.4076L68.5363 53.1285C68.3756 52.9633 68.193 52.8211 67.9936 52.7058C67.7764 52.5902 67.5327 52.5336 67.2869 52.5416C67.0949 52.5392 66.9048 52.5805 66.731 52.6624C66.5651 52.7387 66.4158 52.847 66.2919 52.9813C66.1677 53.1213 66.0705 53.2832 66.0055 53.4587C65.9353 53.6438 65.8996 53.8401 65.8999 54.038V54.055C65.8989 54.2561 65.9347 54.4556 66.0055 54.6438C66.0707 54.8219 66.171 54.985 66.3005 55.1234C66.43 55.2619 66.586 55.3728 66.7593 55.4496C66.9429 55.5318 67.1423 55.573 67.3434 55.5703C67.5836 55.5756 67.8211 55.5191 68.0331 55.4062C68.2396 55.2905 68.4298 55.1477 68.5985 54.9816L69.2656 55.6232C69.0332 55.8806 68.7585 56.0964 68.4534 56.261C68.0929 56.4365 67.695 56.5207 67.2944 56.5063" fill="#588A3D"/>
<path d="M71.8548 56.4628C71.664 56.4652 71.4739 56.4417 71.2894 56.3929C71.1253 56.3495 70.9727 56.2703 70.8428 56.1608C70.7125 56.0467 70.6133 55.9012 70.5545 55.7381C70.481 55.5279 70.4465 55.306 70.4527 55.0833V52.6056H69.8422V51.679H70.4527V50.3845H71.5664V51.6753H72.8611V52.6018H71.5721V54.9135C71.5638 54.9951 71.5734 55.0775 71.6001 55.1551C71.6267 55.2326 71.6699 55.3034 71.7266 55.3626C71.8499 55.4621 72.0058 55.5119 72.1638 55.5022C72.4011 55.5017 72.6351 55.4468 72.8479 55.3418V56.2231C72.707 56.3007 72.557 56.3603 72.4013 56.4005C72.2225 56.4444 72.0388 56.4653 71.8548 56.4628Z" fill="#588A3D"/>
<path d="M76.8863 56.3835V55.8042C76.693 56.0263 76.4526 56.2023 76.1826 56.3195C75.9127 56.4367 75.62 56.4921 75.326 56.4816C75.1039 56.4826 74.883 56.4508 74.6702 56.3873C74.4734 56.331 74.2891 56.2375 74.1275 56.1118C73.97 55.9898 73.8413 55.8345 73.7506 55.657C73.6532 55.4621 73.6047 55.2464 73.6092 55.0286V55.0116C73.6033 54.7761 73.6537 54.5425 73.7562 54.3304C73.8506 54.1396 73.9896 53.9745 74.1614 53.8492C74.3479 53.7152 74.5584 53.6185 74.7814 53.5642C75.0364 53.5 75.2985 53.4683 75.5615 53.4699C75.8108 53.4669 76.0598 53.4852 76.3059 53.5246C76.5049 53.5584 76.7013 53.6057 76.8938 53.6661V53.5775C76.9036 53.4367 76.8812 53.2955 76.8283 53.1647C76.7754 53.0339 76.6934 52.9169 76.5886 52.8226C76.335 52.6349 76.0232 52.5433 75.7085 52.5641C75.4624 52.5605 75.2167 52.5878 74.9773 52.6452C74.7571 52.7009 74.5411 52.7722 74.331 52.8585L74.0295 51.9942C74.2949 51.8763 74.5697 51.781 74.8511 51.7093C75.1828 51.6324 75.5227 51.5969 75.863 51.6036C76.5804 51.6036 77.1124 51.7772 77.4592 52.1244C77.8059 52.4716 77.9793 52.9598 77.9793 53.5888V56.3779L76.8863 56.3835ZM76.9146 54.4153C76.7532 54.3555 76.5867 54.3106 76.4171 54.2813C76.2169 54.2444 76.0138 54.2261 75.8103 54.2266C75.5269 54.2085 75.2445 54.2741 74.9981 54.4153C74.9072 54.4716 74.8324 54.5506 74.7812 54.6446C74.73 54.7385 74.7041 54.8442 74.706 54.9512V54.9682C74.7016 55.0705 74.7242 55.1721 74.7715 55.2629C74.8188 55.3537 74.8892 55.4304 74.9755 55.4853C75.1733 55.6091 75.4037 55.6709 75.6369 55.6627C75.8085 55.6648 75.9795 55.6406 76.1438 55.5909C76.2896 55.5486 76.4267 55.4809 76.549 55.3909C76.6615 55.3092 76.7537 55.2027 76.8185 55.0796C76.8835 54.9544 76.9166 54.815 76.9146 54.6738V54.4153Z" fill="#588A3D"/>
<path d="M79.2532 51.679H80.3669V52.7396C80.5047 52.406 80.7276 52.1145 81.0133 51.8942C81.3202 51.6733 81.6956 51.5689 82.0723 51.5998V52.732H82.0082C81.7812 52.7294 81.5556 52.7691 81.343 52.849C81.1454 52.9234 80.9675 53.0422 80.8229 53.1962C80.6683 53.3636 80.5531 53.5635 80.4856 53.7812C80.4011 54.0445 80.361 54.32 80.3669 54.5965V56.3873H79.2532V51.679Z" fill="#588A3D"/>
<path d="M43.5104 58.8763H44.6222V59.6595C44.7988 59.4106 45.0214 59.1979 45.278 59.033C45.5709 58.8545 45.9096 58.766 46.2523 58.7782C46.5358 58.7776 46.8167 58.8321 47.0795 58.9386C47.3476 59.0459 47.5911 59.2064 47.7956 59.4104C48.0123 59.6303 48.1838 59.8906 48.3007 60.1765C48.4319 60.5084 48.496 60.8632 48.4891 61.2201V61.2371C48.4952 61.5933 48.4312 61.9473 48.3007 62.2787C48.1877 62.5653 48.0178 62.8259 47.8013 63.0449C47.5963 63.2505 47.3513 63.4118 47.0814 63.5185C46.8163 63.6239 46.5337 63.6783 46.2485 63.6789C45.9034 63.6911 45.562 63.604 45.2648 63.4279C45.0181 63.2736 44.7996 63.0784 44.6184 62.8505V65.0055H43.5066L43.5104 58.8763ZM45.9997 62.7429C46.1807 62.7439 46.36 62.7084 46.527 62.6387C46.694 62.569 46.8454 62.4665 46.9721 62.3372C47.1018 62.2018 47.2025 62.0412 47.268 61.8655C47.3444 61.6649 47.3821 61.4517 47.3792 61.2371V61.2201C47.3815 61.0086 47.3438 60.7985 47.268 60.6011C47.2025 60.4236 47.1019 60.2612 46.9721 60.1237C46.8483 59.994 46.6996 59.8906 46.5349 59.8199C46.3653 59.7494 46.1834 59.7135 45.9997 59.7142C45.8155 59.7137 45.633 59.7496 45.4627 59.8199C45.2943 59.8907 45.1423 59.9954 45.0161 60.1275C44.8851 60.2659 44.7815 60.4279 44.7108 60.6049C44.6316 60.8001 44.5925 61.0094 44.5958 61.2201V61.2371C44.5928 61.449 44.6319 61.6594 44.7108 61.856C44.78 62.0338 44.8837 62.1961 45.0161 62.3335C45.1431 62.4632 45.295 62.5659 45.4627 62.6354C45.6326 62.7072 45.8153 62.7438 45.9997 62.7429Z" fill="#588A3D"/>
<path d="M52.5333 63.5753V62.9959C52.34 63.218 52.0995 63.3941 51.8296 63.5113C51.5597 63.6285 51.267 63.6839 50.973 63.6734C50.7503 63.6743 50.5287 63.6426 50.3153 63.579C50.1191 63.5211 49.9352 63.4278 49.7726 63.3035C49.6159 63.1806 49.4874 63.0256 49.3957 62.8487C49.2983 62.6539 49.2498 62.4382 49.2543 62.2203V62.2034C49.2487 61.9674 49.2984 61.7335 49.3994 61.5202C49.495 61.3303 49.6346 61.1659 49.8065 61.0409C49.9928 60.9064 50.2033 60.809 50.4265 60.7541C50.6816 60.6905 50.9437 60.6594 51.2066 60.6616C51.4558 60.6581 51.7048 60.6758 51.951 60.7145C52.15 60.7489 52.3464 60.7968 52.539 60.8579V60.7635C52.549 60.6227 52.5267 60.4815 52.4738 60.3506C52.4209 60.2198 52.3387 60.1028 52.2337 60.0087C51.9794 59.821 51.667 59.7294 51.3517 59.7502C51.1062 59.7467 50.8612 59.7739 50.6225 59.8313C50.4017 59.8872 50.1851 59.9585 49.9742 60.0446L49.6746 59.1803C49.9394 59.0626 50.2136 58.9673 50.4943 58.8953C50.8266 58.8178 51.1671 58.7817 51.5082 58.7878C52.2268 58.7878 52.7588 58.9614 53.1043 59.3086C53.451 59.6577 53.6244 60.1446 53.6244 60.7748V63.5753H52.5333ZM52.5597 61.6052C52.3989 61.546 52.233 61.5018 52.0641 61.4731C51.8639 61.4361 51.6608 61.4178 51.4573 61.4183C51.1739 61.4002 50.8915 61.4658 50.6451 61.607C50.5539 61.6626 50.4789 61.7412 50.4277 61.8349C50.3764 61.9287 50.3506 62.0342 50.353 62.1411V62.16C50.3484 62.2623 50.3709 62.364 50.4183 62.4548C50.4656 62.5456 50.536 62.6222 50.6225 62.677C50.8203 62.8009 51.0507 62.8626 51.2839 62.8544C51.4549 62.8558 51.6251 62.8316 51.7889 62.7827C51.9353 62.7404 52.073 62.6727 52.196 62.5827C52.3076 62.5 52.3996 62.3937 52.4655 62.2713C52.5297 62.1459 52.5621 62.0065 52.5597 61.8656V61.6052Z" fill="#588A3D"/>
<path d="M54.9058 58.8764H56.0176V59.937C56.1551 59.6 56.3787 59.3052 56.6659 59.0821C56.9718 58.8592 57.348 58.7547 57.7249 58.7877V59.92H57.6646C57.4371 59.9177 57.2111 59.9567 56.9975 60.0351C56.8008 60.1111 56.6232 60.2297 56.4774 60.3823C56.324 60.5505 56.2089 60.7501 56.1401 60.9673C56.0565 61.2308 56.0164 61.5061 56.0214 61.7825V63.5733H54.9095L54.9058 58.8764Z" fill="#588A3D"/>
<path d="M61.5824 63.5753V62.9959C61.3893 63.2178 61.1492 63.3937 60.8796 63.5109C60.61 63.628 60.3177 63.6836 60.024 63.6734C59.8013 63.6743 59.5797 63.6425 59.3663 63.579C59.1698 63.522 58.9857 63.4285 58.8236 63.3035C58.667 63.1805 58.5385 63.0255 58.4467 62.8487C58.3493 62.6539 58.3008 62.4382 58.3054 62.2203V62.2034C58.2998 61.9672 58.3501 61.7331 58.4523 61.5202C58.547 61.3302 58.6859 61.1658 58.8575 61.0409C59.0439 60.9064 59.2544 60.809 59.4775 60.7541C59.7326 60.6905 59.9948 60.6594 60.2577 60.6616C60.51 60.6575 60.7622 60.6752 61.0115 60.7145C61.2104 60.7489 61.4069 60.7968 61.5994 60.8579V60.7635C61.6094 60.6227 61.5871 60.4815 61.5342 60.3507C61.4813 60.2198 61.3992 60.1028 61.2941 60.0087C61.0406 59.821 60.7287 59.7294 60.4141 59.7502C60.1685 59.7467 59.9236 59.7739 59.6848 59.8313C59.4639 59.887 59.2473 59.9582 59.0365 60.0446L58.735 59.1803C59.0004 59.0624 59.2753 58.967 59.5566 58.8953C59.8882 58.8178 60.2281 58.7816 60.5686 58.7878C61.2872 58.7878 61.8193 58.9614 62.1647 59.3086C62.5115 59.6577 62.6849 60.1446 62.6849 60.7749V63.5753H61.5824ZM61.6107 61.6052C61.4493 61.5458 61.2828 61.5016 61.1132 61.4731C60.9131 61.4362 60.7099 61.4178 60.5064 61.4183C60.2231 61.4005 59.9408 61.4661 59.6942 61.6071C59.6033 61.6629 59.5285 61.7415 59.4773 61.8352C59.4261 61.9289 59.4002 62.0343 59.4021 62.1411V62.16C59.3979 62.2622 59.4206 62.3638 59.4679 62.4545C59.5152 62.5452 59.5854 62.622 59.6716 62.677C59.8695 62.8009 60.0998 62.8626 60.333 62.8544C60.5046 62.8556 60.6754 62.8314 60.84 62.7827C60.9857 62.7403 61.1228 62.6726 61.2451 62.5827C61.3568 62.5 61.4488 62.3937 61.5146 62.2713C61.5794 62.146 61.6125 62.0067 61.6107 61.8656V61.6052Z" fill="#588A3D"/>
<path d="M68.8905 63.6809C68.2243 63.6901 67.5818 63.4343 67.104 62.9695C66.8793 62.7486 66.7012 62.4849 66.5801 62.1939C66.4539 61.8955 66.3897 61.5744 66.3916 61.2503V61.2334C66.3908 60.9094 66.4549 60.5885 66.5801 60.2898C66.7006 59.9963 66.8788 59.73 67.104 59.5067C67.3332 59.2804 67.6039 59.1003 67.9011 58.9764C68.5889 58.7054 69.3553 58.7149 70.0362 59.0029C70.3332 59.149 70.6008 59.3486 70.8258 59.5916L70.1399 60.3125C69.9794 60.1478 69.7975 60.0056 69.599 59.8898C69.3813 59.7734 69.1371 59.7162 68.8905 59.7237C68.6985 59.7225 68.5087 59.7638 68.3345 59.8445C68.1691 59.9215 68.0205 60.0305 67.8973 60.1653C67.7715 60.3044 67.6736 60.4665 67.609 60.6427C67.5387 60.8277 67.503 61.0241 67.5035 61.222V61.239C67.5026 61.4401 67.5384 61.6396 67.609 61.8278C67.6761 62.0056 67.7766 62.1689 67.9049 62.309C68.0347 62.4455 68.1895 62.5557 68.3609 62.6336C68.5449 62.7149 68.744 62.7561 68.9451 62.7543C69.1855 62.76 69.4232 62.7027 69.6348 62.5883C69.8412 62.4732 70.0313 62.331 70.2002 62.1656L70.8654 62.8072C70.6325 63.0641 70.3579 63.2797 70.0532 63.445C69.6925 63.6198 69.2946 63.7034 68.8942 63.6884" fill="#588A3D"/>
<path d="M71.8284 58.8764H72.9421V59.937C73.0786 59.5994 73.3023 59.3044 73.5904 59.0821C73.8956 58.8592 74.2712 58.7546 74.6476 58.7877V59.92H74.5835C74.3566 59.9177 74.1312 59.9567 73.9183 60.0351C73.721 60.1102 73.5432 60.2289 73.3981 60.3823C73.244 60.55 73.1288 60.7498 73.0608 60.9673C72.9772 61.2308 72.9371 61.5061 72.9421 61.7825V63.5733H71.8284V58.8764Z" fill="#588A3D"/>
<path d="M77.7682 63.6808C77.4358 63.6835 77.1059 63.6233 76.7958 63.5034C76.5043 63.3905 76.2379 63.2213 76.0118 63.0052C75.7865 62.7864 75.6082 62.5238 75.488 62.2334C75.3582 61.9189 75.2941 61.5811 75.2995 61.2408V61.2219C75.2967 60.8962 75.3556 60.5728 75.4729 60.269C75.583 59.9797 75.7488 59.7148 75.961 59.4896C76.1784 59.2586 76.4415 59.0755 76.7335 58.9521C77.0255 58.8286 77.34 58.7674 77.657 58.7725C78.0042 58.7649 78.3486 58.8352 78.6652 58.9782C78.943 59.1062 79.1889 59.2944 79.385 59.5292C79.5808 59.7676 79.728 60.0419 79.8185 60.3369C79.9174 60.6493 79.967 60.9753 79.9655 61.3031C79.9655 61.3509 79.9655 61.4 79.9655 61.4503C79.9655 61.5012 79.9655 61.5522 79.9523 61.605H76.4C76.438 61.9497 76.6059 62.2669 76.8693 62.4919C77.1292 62.7 77.4544 62.809 77.787 62.7995C78.0316 62.8058 78.2744 62.7568 78.4975 62.6561C78.7159 62.5491 78.9162 62.4083 79.0911 62.2391L79.7374 62.8052C79.5081 63.0724 79.2274 63.2906 78.912 63.4468C78.5547 63.6152 78.1629 63.6973 77.7682 63.6865V63.6808ZM78.863 60.8993C78.8456 60.7323 78.8057 60.5686 78.7443 60.4124C78.6869 60.268 78.6032 60.1355 78.4975 60.0218C78.3907 59.9094 78.2626 59.8195 78.1206 59.7576C77.9667 59.6905 77.8003 59.6571 77.6325 59.6595C77.4757 59.6549 77.3196 59.6831 77.1743 59.7422C77.0289 59.8014 76.8975 59.8901 76.7882 60.0029C76.5586 60.249 76.4162 60.564 76.3831 60.8993H78.863Z" fill="#588A3D"/>
<path d="M82.6848 63.6638C82.3263 63.6614 81.9706 63.6009 81.6314 63.4845C81.2744 63.3634 80.9401 63.1835 80.6421 62.9523L81.1339 62.2202C81.3786 62.4013 81.6476 62.5468 81.9329 62.6523C82.1824 62.7467 82.4465 62.7965 82.7131 62.7995C82.9069 62.8117 83.0998 62.7635 83.2652 62.6617C83.3249 62.6211 83.3734 62.5661 83.4063 62.5018C83.4392 62.4375 83.4555 62.366 83.4537 62.2938V62.273C83.4545 62.1881 83.4236 62.106 83.367 62.0428C83.3002 61.9707 83.2194 61.9129 83.1296 61.8729C83.017 61.8208 82.9012 61.776 82.7828 61.739C82.6509 61.6993 82.5171 61.6559 82.3758 61.6163C82.2005 61.5672 82.0215 61.5125 81.8425 61.4465C81.6703 61.386 81.5078 61.3008 81.3601 61.1936C81.2177 61.0898 81.0979 60.9582 81.0077 60.8068C80.9128 60.6335 80.866 60.4381 80.872 60.2406V60.2237C80.8688 60.0173 80.914 59.8131 81.0039 59.6273C81.0908 59.4517 81.2149 59.2971 81.3676 59.1744C81.5313 59.0464 81.7172 58.9498 81.916 58.8895C82.1336 58.8242 82.3597 58.7917 82.5868 58.7933C82.8995 58.7944 83.2101 58.8427 83.5083 58.9367C83.8081 59.0286 84.0935 59.162 84.3563 59.333L83.9192 60.1029C83.6968 59.97 83.4612 59.8606 83.2163 59.7764C83.0049 59.7011 82.7828 59.6604 82.5586 59.6557C82.3827 59.6455 82.2082 59.6925 82.0611 59.7896C82.0064 59.8273 81.9617 59.8778 81.9308 59.9366C81.9 59.9955 81.8839 60.0609 81.8839 60.1274V60.1463C81.8839 60.1867 81.8918 60.2267 81.9074 60.2639C81.9229 60.3012 81.9457 60.335 81.9744 60.3633C82.0453 60.4327 82.1275 60.4895 82.2175 60.5312C82.3296 60.5871 82.4455 60.635 82.5642 60.6747C82.6943 60.72 82.8299 60.7615 82.9694 60.803C83.1465 60.8558 83.3218 60.9181 83.4989 60.9917C83.6683 61.0597 83.829 61.1478 83.9776 61.254C84.1182 61.3553 84.2374 61.4836 84.3281 61.6314C84.4242 61.796 84.4718 61.9844 84.4656 62.1749V62.1919C84.4715 62.4161 84.4243 62.6385 84.3281 62.841C84.2402 63.0209 84.1111 63.1774 83.9512 63.2977C83.7818 63.4244 83.59 63.5179 83.3859 63.5732C83.157 63.6371 82.9205 63.6688 82.683 63.6675" fill="#588A3D"/>
<path d="M87.7935 63.6809C87.1276 63.6892 86.4855 63.4334 86.007 62.9695C85.7836 62.7476 85.6056 62.4842 85.4832 62.1939C85.3569 61.8955 85.2928 61.5745 85.2947 61.2504V61.2334C85.2936 60.9119 85.356 60.5934 85.4782 60.2961C85.6005 59.9988 85.7802 59.7286 86.007 59.5011C86.2363 59.2747 86.5069 59.0947 86.8042 58.9708C87.492 58.6998 88.2584 58.7092 88.9393 58.9972C89.2363 59.1434 89.5039 59.343 89.7289 59.586L89.0448 60.3069C88.8833 60.1426 88.7008 60.0005 88.5021 59.8842C88.2844 59.7678 88.0401 59.7106 87.7935 59.7181C87.6016 59.7169 87.4118 59.7581 87.2376 59.8389C87.0722 59.9159 86.9236 60.0249 86.8004 60.1597C86.6746 60.2988 86.5767 60.4609 86.5121 60.6371C86.4424 60.8222 86.4073 61.0186 86.4084 61.2164V61.2334C86.407 61.4343 86.4421 61.6339 86.5121 61.8222C86.5792 62.0004 86.6803 62.1639 86.8098 62.3034C86.9389 62.4407 87.0939 62.5511 87.2659 62.628C87.4497 62.7095 87.649 62.7507 87.8501 62.7487C88.0898 62.7541 88.3269 62.6969 88.5379 62.5827C88.7443 62.4676 88.9344 62.3254 89.1032 62.16L89.7684 62.8016C89.5359 63.0589 89.2612 63.2746 88.9562 63.4394C88.5956 63.6142 88.1977 63.6978 87.7973 63.6828" fill="#588A3D"/>
<path d="M92.94 63.6808C92.6076 63.6836 92.2777 63.6234 91.9677 63.5034C91.6764 63.3901 91.4101 63.2209 91.1837 63.0053C90.9583 62.7865 90.7801 62.5238 90.6598 62.2334C90.5301 61.9189 90.466 61.5811 90.4714 61.2408V61.222C90.4695 60.8963 90.5283 60.5731 90.6448 60.269C90.7556 59.9801 90.9213 59.7154 91.1328 59.4896C91.3505 59.259 91.6137 59.0762 91.9056 58.9527C92.1976 58.8293 92.512 58.7679 92.8289 58.7726C93.1761 58.7648 93.5206 58.835 93.8371 58.9782C94.1151 59.1067 94.3615 59.2948 94.5588 59.5293C94.7531 59.7685 94.9002 60.0426 94.9922 60.3369C95.0896 60.6497 95.1385 60.9755 95.1373 61.3031C95.1373 61.3509 95.1373 61.4 95.1373 61.4503C95.1373 61.5013 95.1373 61.5522 95.1241 61.605H91.5719C91.6099 61.9497 91.7777 62.2669 92.0412 62.492C92.3011 62.7 92.6263 62.809 92.9589 62.7996C93.2035 62.8059 93.4463 62.7569 93.6693 62.6561C93.8881 62.5496 94.0884 62.4088 94.2629 62.2391L94.9112 62.8052C94.6811 63.0716 94.4005 63.2896 94.0858 63.4468C93.7278 63.6152 93.3354 63.6973 92.94 63.6865V63.6808ZM94.0349 60.8936C94.0175 60.7267 93.9775 60.5629 93.9162 60.4068C93.8595 60.262 93.7757 60.1294 93.6693 60.0161C93.5626 59.9037 93.4344 59.8139 93.2924 59.7519C93.1386 59.6849 92.9722 59.6514 92.8044 59.6538C92.6475 59.6493 92.4915 59.6775 92.3462 59.7366C92.2008 59.7957 92.0693 59.8845 91.9601 59.9973C91.7312 60.2439 91.5889 60.5586 91.555 60.8936H94.0349Z" fill="#588A3D"/>
<path d="M96.2058 58.8764H97.3195V59.937C97.456 59.5994 97.6798 59.3044 97.9678 59.0821C98.273 58.8592 98.6486 58.7546 99.025 58.7877V59.92H98.9609C98.734 59.9177 98.5086 59.9567 98.2957 60.0351C98.0984 60.1102 97.9206 60.2289 97.7756 60.3823C97.6214 60.55 97.5062 60.7498 97.4383 60.9673C97.3547 61.2308 97.3146 61.5061 97.3195 61.7825V63.5733H96.2058V58.8764Z" fill="#588A3D"/>
<path d="M1.48314 62.1843C6.20562 58.5517 8.37841 56.6609 8.37841 54.6738C8.37841 53.1981 7.14973 52.5546 5.9286 52.5546C5.27914 52.5401 4.63474 52.672 4.04303 52.9405C3.45133 53.209 2.92746 53.6072 2.51017 54.1058L1.38892 52.8754C2.42726 51.5714 4.14589 50.8713 5.91164 50.8713C8.173 50.8713 10.3119 52.1583 10.3119 54.6738C10.3119 57.127 7.95063 59.3462 4.49452 62.0145H10.3646V63.6789H1.48314V62.1843Z" fill="#A6A5A5"/>
<path d="M16.6814 50.8713C20.1771 50.8713 21.6131 54.2567 21.6131 57.3779C21.6131 60.4992 20.1771 63.9053 16.6814 63.9053C13.1857 63.9053 11.7498 60.5086 11.7498 57.3779C11.7498 54.2473 13.1914 50.8713 16.6814 50.8713ZM16.6814 52.5546C14.4521 52.5546 13.6776 54.9191 13.6776 57.3779C13.6776 59.8368 14.4521 62.2221 16.6814 62.2221C18.9107 62.2221 19.6853 59.8387 19.6853 57.3779C19.6853 54.9172 18.9107 52.5546 16.6814 52.5546Z" fill="#A6A5A5"/>
<path d="M22.5816 62.1843C27.3059 58.5517 29.4787 56.6609 29.4787 54.6738C29.4787 53.1981 28.25 52.5546 27.0289 52.5546C26.3794 52.5401 25.735 52.672 25.1433 52.9405C24.5516 53.209 24.0278 53.6072 23.6105 54.1058L22.4949 52.8754C23.5351 51.5714 25.2537 50.8713 27.0176 50.8713C29.2789 50.8713 31.4197 52.1583 31.4197 54.6738C31.4197 57.127 29.0585 59.3462 25.6024 62.0145H31.4706V63.6789H22.5816V62.1843Z" fill="#A6A5A5"/>
<path d="M35.722 53.5378L33.683 55.6758L32.5674 54.5228L35.95 51.0601H37.6121V63.6789H35.722V53.5378Z" fill="#A6A5A5"/>
</g>
<defs>
<clipPath id="clip0_367_156">
<rect width="130" height="65" fill="white"/>
</clipPath>
</defs>
</svg>
