<svg width="253" height="82" viewBox="0 0 253 82" fill="none" xmlns="http://www.w3.org/2000/svg">
<path d="M3.20068 40.8216C3.20068 20.4172 19.7342 3.8457 40.1387 3.8457C60.5432 3.8457 77.0767 20.4299 77.0767 40.8216C77.0767 61.2261 60.5432 77.7976 40.1387 77.7976C19.7469 77.7976 3.20068 61.2261 3.20068 40.8216Z" fill="#2796D3"/>
<mask id="mask0_616_716" style="mask-type:alpha" maskUnits="userSpaceOnUse" x="3" y="3" width="75" height="75">
<path d="M3.23877 40.8216C3.23877 20.4172 19.7723 3.8457 40.1767 3.8457C60.5812 3.8457 77.1147 20.4299 77.1147 40.8216C77.1147 61.2261 60.5812 77.7976 40.1767 77.7976C19.785 77.7976 3.23877 61.2261 3.23877 40.8216Z" fill="white"/>
</mask>
<g mask="url(#mask0_616_716)">
<path d="M3.1626 31.0685C3.1626 31.0685 10.7526 28.3741 16.7107 31.0685C30.5878 40.8849 36.5712 37.5706 47.2858 33.1178C50.7139 31.6884 57.216 26.9067 66.0457 31.0685C74.8754 35.2304 77.1271 34.5979 77.1271 34.5979V55.0783C77.1271 67.6271 66.9565 77.7977 54.4077 77.7977H25.882C13.3332 77.7977 3.1626 67.6271 3.1626 55.0783V31.0685Z" fill="#37A2DC"/>
<path d="M3.1626 34.7501C3.1626 34.7501 9.2346 32.258 15.1927 34.7501C29.0698 43.7948 35.8755 40.9233 46.59 36.8247C50.0182 35.5091 56.5203 31.8785 62.6682 34.5477C71.4979 38.3806 77.1145 38.3806 77.1145 38.3806V55.066C77.1145 67.6148 66.9439 77.7854 54.3951 77.7854H25.882C13.3332 77.798 3.1626 67.6274 3.1626 55.0786V34.7501Z" fill="#55BFEE"/>
<path d="M36.091 53.5727C35.7495 53.5727 35.4712 53.2944 35.4712 52.9529C35.4712 52.6113 35.7495 52.333 36.091 52.333C36.4326 52.333 36.7109 52.6113 36.7109 52.9529C36.7109 53.2944 36.4326 53.5727 36.091 53.5727Z" fill="white" stroke="white" stroke-width="0.1799" stroke-miterlimit="10"/>
<path d="M34.7122 51.1061C34.2947 51.1061 33.9658 50.7772 33.9658 50.3724C33.9658 49.9676 34.2947 49.6387 34.7122 49.6387C35.1296 49.6387 35.4585 49.9676 35.4585 50.3724C35.4585 50.7645 35.1296 51.1061 34.7122 51.1061Z" fill="white" stroke="white" stroke-width="0.1799" stroke-miterlimit="10"/>
<path d="M36.7866 48.3987C36.268 48.3987 35.8379 47.9812 35.8379 47.4752C35.8379 46.9566 36.2553 46.5518 36.7866 46.5518C37.3053 46.5518 37.7354 46.9692 37.7354 47.4752C37.7354 47.9939 37.3179 48.3987 36.7866 48.3987Z" fill="white" stroke="white" stroke-width="0.1799" stroke-miterlimit="10"/>
<path d="M34.1809 55.3686C33.8393 55.3686 33.561 55.0903 33.561 54.7488C33.561 54.4072 33.8393 54.1289 34.1809 54.1289C34.5225 54.1289 34.8008 54.4072 34.8008 54.7488C34.8134 55.0903 34.5351 55.3686 34.1809 55.3686Z" fill="white" stroke="white" stroke-width="0.1517" stroke-miterlimit="10"/>
<path fill-rule="evenodd" clip-rule="evenodd" d="M39.4305 56.7354C44.4146 61.9978 51.7516 61.5677 57.1152 56.0776C51.3468 51.7513 44.1237 51.0809 39.4305 56.7354ZM62.2764 50.4863C62.7065 50.8658 63.0481 51.1694 63.4908 51.5742C62.2132 53.0543 60.9861 54.4584 59.7717 55.8499C61.4036 57.2161 63.0734 58.6329 64.8823 60.1509C64.4016 60.5684 64.0474 60.8593 63.6173 61.2135C62.2132 60.0244 60.7458 58.8353 59.3543 57.5577C58.7471 57.0011 58.3549 56.9252 57.6845 57.4691C55.1165 59.5564 52.2956 61.0744 48.9813 61.2768C44.9459 61.5298 41.6443 59.9359 38.8486 56.786C41.3154 53.6615 44.3008 51.9031 48.159 51.8399C51.8781 51.7766 55.1292 53.2693 58.3296 55.0783C59.6452 53.5476 60.9102 52.0676 62.2764 50.4863Z" fill="white" stroke="white" stroke-width="0.1799" stroke-miterlimit="10"/>
<path d="M42.3656 56.7096C42.6186 56.7096 42.8209 56.5072 42.8209 56.2542C42.8209 56.0012 42.6186 55.7988 42.3656 55.7988C42.1126 55.7988 41.9102 56.0012 41.9102 56.2542C41.9102 56.5072 42.1126 56.7096 42.3656 56.7096Z" fill="white" stroke="white" stroke-width="0.1799" stroke-miterlimit="10"/>
<path d="M20.7971 50.9035C17.8243 50.9035 15.3955 53.3196 15.3955 56.305C15.3955 57.8863 15.8509 59.1386 16.7364 60.0241C18.3683 61.656 21.126 61.7572 23.4409 61.7572C23.4789 61.7572 23.5295 61.7572 23.5674 61.7572C23.7698 62.7818 24.6806 63.5535 25.7685 63.5535H26.6667C26.9197 63.5535 27.1094 63.3511 27.1094 63.1107C27.1094 62.377 26.7552 61.7192 26.2113 61.3144C26.7552 60.897 27.1094 60.2518 27.1094 59.5181C27.1094 59.2651 26.907 59.0754 26.6667 59.0754H25.7685C24.7818 59.0754 23.9469 59.7205 23.6307 60.606C23.2891 60.4036 22.9729 60.2139 22.6819 60.0368C20.1646 58.5441 19.8863 58.3543 19.8863 57.5827C19.8863 56.8743 20.4555 56.305 21.1639 56.305H23.0361C25.0095 56.305 26.6793 55.1792 27.5016 53.5979H29.4117C29.6647 53.5979 29.8545 53.3955 29.8545 53.1552C29.8545 52.9022 29.6521 52.7124 29.4117 52.7124H27.8684C27.957 52.4215 28.0076 52.1179 28.0455 51.8143H28.969C29.9683 51.8143 30.7653 51.0047 30.7653 50.018C30.7653 49.0186 29.9557 48.2217 28.969 48.2217H22.1886C21.9356 48.2217 21.7458 48.4241 21.7458 48.6644C21.7458 48.9174 21.9482 49.1072 22.1886 49.1072H28.969C29.4623 49.1072 29.8671 49.512 29.8671 50.0053C29.8671 50.4987 29.4623 50.9035 28.969 50.9035C28.0455 50.9035 21.8344 50.9035 20.7971 50.9035ZM23.0361 55.4069H22.644C21.6699 55.4069 20.835 54.6479 20.7971 53.6738C20.7591 52.6492 21.5814 51.8016 22.5934 51.8016H27.1347C26.8944 53.8256 25.1613 55.4069 23.0361 55.4069ZM20.6453 55.4701C20.1519 55.584 19.7218 55.8876 19.4309 56.2671C19.2791 56.2924 19.1399 56.305 18.9881 56.305C17.9382 56.305 17.0021 55.7105 16.5467 54.7744C17.1412 53.1046 18.7225 51.8902 20.5694 51.8016C20.1393 52.2823 19.8863 52.9022 19.8863 53.5979C19.8989 54.3316 20.1772 54.9894 20.6453 55.4701ZM22.2392 60.8084C22.2645 60.8211 22.2898 60.8464 22.3151 60.859C21.2145 60.8211 20.0381 60.7199 19.0261 60.3657C19.4182 60.138 19.7851 59.8217 20.0634 59.4422C20.5314 59.8091 21.2272 60.2139 22.2392 60.8084ZM26.148 59.9735C25.9583 60.4922 25.4649 60.8717 24.883 60.8717H24.5162C24.7059 60.353 25.1993 59.9735 25.7812 59.9735H26.148ZM24.5035 61.7698H24.8704C25.4523 61.7698 25.9583 62.1493 26.1354 62.668H25.7685C25.1866 62.668 24.6933 62.3011 24.5035 61.7698ZM16.2937 56.305C16.2937 56.2038 16.2937 56.1026 16.3063 56.0014C16.9894 56.7604 17.9635 57.2158 19.0387 57.2032C19.0261 57.317 19.0008 57.4562 19.0008 57.5827C19.0008 58.1013 19.1146 58.4935 19.3929 58.8477C19.0387 59.341 18.5327 59.6952 17.9635 59.8723C17.7611 59.7332 17.5587 59.5814 17.3942 59.4043C16.6479 58.6706 16.2937 57.6586 16.2937 56.305Z" fill="white"/>
<path d="M23.972 53.5984C24.2166 53.5984 24.4148 53.4002 24.4148 53.1556C24.4148 52.9111 24.2166 52.7129 23.972 52.7129C23.7275 52.7129 23.5293 52.9111 23.5293 53.1556C23.5293 53.4002 23.7275 53.5984 23.972 53.5984Z" fill="white"/>
</g>
<path d="M113.699 53.8893L111.535 47.0457H101.453L99.2396 53.8893H93.2056L103.174 25.1738H110.232L120.201 53.8893H113.699ZM106.336 31.1446L102.731 42.4031H110.258L106.69 31.1446H106.336Z" fill="white"/>
<path d="M131.232 31.5869C132.699 31.5869 134.04 31.9411 135.216 32.6495C136.405 33.3579 137.291 34.3193 137.873 35.5464H138.227V31.9411H143.856V61.1753H138.05V50.524H137.696C137.101 51.7004 136.241 52.6112 135.115 53.2564C133.989 53.9015 132.648 54.2178 131.118 54.2178C128.373 54.2178 126.209 53.2058 124.628 51.1818C123.047 49.1578 122.263 46.3874 122.263 42.8707C122.263 39.3793 123.072 36.6216 124.679 34.5976C126.285 32.5989 128.474 31.5869 131.232 31.5869ZM133.129 49.3855C134.685 49.3855 135.899 48.8036 136.798 47.6524C137.696 46.5013 138.138 44.92 138.138 42.9213C138.138 40.9226 137.696 39.3414 136.798 38.1776C135.899 37.0138 134.685 36.4319 133.142 36.4319C131.598 36.4319 130.397 37.0011 129.524 38.1523C128.651 39.3034 128.208 40.8847 128.208 42.896C128.208 44.92 128.638 46.5139 129.511 47.6651C130.384 48.8162 131.586 49.3855 133.129 49.3855Z" fill="white"/>
<path d="M169.536 31.9414V53.8892H163.919V50.3725H163.565C162.477 53.0416 160.339 54.3699 157.164 54.3699C154.786 54.3699 152.914 53.6488 151.547 52.2067C150.168 50.7646 149.485 48.7786 149.485 46.2486V31.9414H155.279V44.7559C155.279 47.8045 156.62 49.3352 159.314 49.3352C160.731 49.3352 161.832 48.9177 162.603 48.0828C163.375 47.2479 163.755 46.0841 163.755 44.6041V31.9541H169.536V31.9414Z" fill="white"/>
<path d="M181.351 54.231C179.226 54.231 177.505 53.6238 176.164 52.422C174.836 51.2203 174.166 49.6137 174.166 47.6277C174.166 45.6542 174.899 44.0983 176.367 42.9598C177.834 41.8213 179.934 41.1761 182.666 41.0243L187.979 40.7081V38.9118C187.979 38.001 187.663 37.2926 187.018 36.7866C186.385 36.2932 185.462 36.0402 184.273 36.0402C182.122 36.0402 180.807 36.7107 180.313 38.0642H174.975C175.165 36.0402 176.114 34.421 177.847 33.2446C179.58 32.0555 181.819 31.4609 184.576 31.4609C187.473 31.4609 189.712 32.1061 191.294 33.409C192.875 34.712 193.672 36.5336 193.672 38.8991V53.8894H188.055V51.0305H187.701C187.132 52.0425 186.284 52.8268 185.158 53.3834C184.045 53.94 182.768 54.231 181.351 54.231ZM183.261 49.8667C184.602 49.8667 185.728 49.4872 186.626 48.7282C187.524 47.9692 187.979 47.0331 187.979 45.9199V44.3133L183.539 44.5916C181.072 44.7687 179.833 45.6416 179.833 47.2355C179.833 48.0451 180.149 48.6903 180.781 49.1583C181.414 49.639 182.249 49.8667 183.261 49.8667Z" fill="white"/>
<path d="M212.546 54.231C210.99 54.231 209.624 53.9021 208.434 53.2316C207.245 52.5738 206.36 51.6377 205.778 50.4486H205.424V53.8894H199.807V23.5674H205.601V35.4457H205.955C206.512 34.244 207.372 33.2952 208.536 32.6121C209.699 31.929 211.04 31.5875 212.533 31.5875C215.303 31.5875 217.479 32.5868 219.06 34.5982C220.642 36.5969 221.426 39.3799 221.426 42.9092C221.426 46.4259 220.629 49.1963 219.048 51.2076C217.479 53.219 215.303 54.231 212.546 54.231ZM214.165 38.1655C213.279 37.0143 212.065 36.4324 210.547 36.4324C209.016 36.4324 207.815 37.0143 206.916 38.1781C206.018 39.3419 205.563 40.9232 205.55 42.9219C205.563 44.9079 206.018 46.4892 206.916 47.653C207.815 48.8168 209.016 49.3987 210.547 49.3987C212.09 49.3987 213.292 48.8168 214.178 47.6656C215.063 46.5145 215.506 44.9206 215.506 42.9092C215.493 40.8979 215.05 39.3293 214.165 38.1655Z" fill="white"/>
<path d="M229.104 28.8804C228.067 28.8804 227.245 28.6147 226.612 28.0708C225.993 27.5268 225.676 26.8184 225.676 25.9582C225.676 25.0854 225.993 24.377 226.612 23.833C227.232 23.3017 228.067 23.0234 229.104 23.0234C230.142 23.0234 230.964 23.2891 231.596 23.833C232.216 24.3643 232.533 25.0727 232.533 25.9582C232.533 26.8184 232.216 27.5268 231.584 28.0708C230.951 28.6021 230.129 28.8804 229.104 28.8804ZM226.195 53.8894V31.9417H231.989V53.8894H226.195Z" fill="white"/>
<path d="M239.49 26.7295H245.284V32.1563H249.838V36.7103H245.284V46.5773C245.284 47.5261 245.512 48.2345 245.967 48.6899C246.422 49.1453 247.143 49.3603 248.13 49.3603C248.775 49.3603 249.345 49.335 249.838 49.2844V53.6992C248.952 53.8763 247.978 53.9522 246.928 53.9522C244.259 53.9522 242.349 53.4842 241.211 52.5608C240.059 51.6373 239.49 50.094 239.49 47.9435V36.6977H236.062V32.1437H239.49V26.7295Z" fill="white"/>
</svg>
