<svg width="218" height="227" viewBox="0 0 218 227" fill="none" xmlns="http://www.w3.org/2000/svg">
<path d="M143.151 179.089C143.151 179.089 139.686 183.07 140.957 187.614C142.228 192.158 142.576 193.609 140.681 195.419C138.786 197.23 133.486 202.397 133.486 202.397L107.789 189.437C109.28 186.705 110.37 183.774 111.027 180.732C111.986 176.02 139.434 174.737 143.151 179.089Z" fill="#007E9B"/>
<path d="M84.5381 125.184C84.606 125.127 84.6782 125.075 84.7539 125.028C84.6869 125.086 84.6146 125.139 84.5381 125.184Z" fill="#CACACA"/>
<path d="M39.571 88.2678H39.631C39.3552 88.5196 35.9377 91.577 34.175 92.9917C33.0358 93.903 31.8967 95.3897 30.5776 96.2529C31.8607 95.3657 32.9759 93.855 34.115 93.0037C35.9737 91.553 39.571 88.2678 39.571 88.2678Z" fill="#CACACA"/>
<path d="M56.7904 8.56063C50.2672 7.62544 50.9028 5.89893 50.531 6.1627C50.8068 6.1627 50.531 7.74533 56.7305 8.63257C58.1956 8.86595 59.6877 8.87404 61.1552 8.65654C59.7034 8.83688 58.233 8.80457 56.7904 8.56063ZM67.3427 6.06678C67.0322 6.07649 66.7249 6.13308 66.4314 6.23464C66.7115 6.15023 67.0022 6.10583 67.2947 6.10275C67.5423 6.09712 67.7865 6.04422 68.0142 5.94689C67.7979 6.02141 67.5714 6.06186 67.3427 6.06678ZM82.6315 25.2502C79.7176 25.2502 79.7176 22.7084 79.7176 17.9725C79.7176 13.2366 78.6264 8.87236 75.7125 8.14099C72.7987 7.40962 77.9429 2.73366 75.7125 0.923223C75.5259 0.766396 75.2958 0.670199 75.053 0.647461C75.2786 0.688108 75.4895 0.787343 75.6646 0.935212C77.847 2.75764 72.7507 7.48156 75.6646 8.21293C78.5784 8.9443 79.6696 13.3085 79.6696 17.9845C79.6696 22.6605 79.6696 25.2622 82.5835 25.2622H82.9193L82.6315 25.2502ZM44.0558 26.7489C41.1419 26.7489 39.2593 24.5788 37.5086 22.025C36.3095 20.4424 35.7939 20.1186 34.283 20.6462C35.7579 20.1546 36.3215 20.4903 37.4486 22.061C39.2713 24.5908 41.046 26.7729 43.9958 26.7729C44.5482 26.7708 45.0989 26.7105 45.6386 26.5931C45.1158 26.6856 44.5866 26.7377 44.0558 26.7489ZM23.275 22.061C24.1984 22.061 25.2776 23.2599 27.5919 23.0921C25.2656 23.2719 24.1984 21.989 23.275 22.061ZM17.4833 55.1524H17.4233C17.4233 55.1524 17.7351 58.2457 19.4858 58.1378C17.7831 58.1498 17.4833 55.1524 17.4833 55.1524ZM93.5315 20.5623C93.4801 20.5509 93.4269 20.5509 93.3756 20.5623H93.5315C95.486 20.5623 95.9297 21.8571 96.829 21.9411C95.9297 21.8092 95.4501 20.5623 93.5315 20.5623ZM104.096 16.9654H103.76H104.036C105.235 16.9654 110.439 19.0156 114.216 18.2483C110.463 18.9557 105.259 16.9294 104.108 16.9294L104.096 16.9654ZM215.458 62.0944C212.916 59.9003 210.362 59.9003 207.064 59.9003C206.021 59.9003 204.198 58.7013 202.064 57.1427C202.747 57.6702 203.383 58.1378 203.982 58.5335C204.867 59.2614 205.924 59.7487 207.052 59.9483C210.314 59.9483 212.856 59.9483 215.446 62.1184C216.537 63.0416 217.353 65.9311 217.652 69.3122C217.839 71.3061 217.839 73.3131 217.652 75.307C217.652 75.307 214.715 74.6835 213.264 75.307C211.89 75.7737 210.551 76.3386 209.258 76.9975C206.716 78.2684 208.983 80.0909 206.477 79.5513C203.97 79.0118 204.498 77.669 204.078 76.1463C203.659 74.6236 200.913 75.4988 200.013 76.1463C199.114 76.7937 197.171 78.82 195.121 75.7266C194.533 77.1894 193.454 74.4557 191.811 74.2759C190.169 74.096 185.708 76.41 184.988 75.4748C184.988 75.3909 184.928 75.295 184.892 75.1991C184.173 73.029 185.624 73.7603 186.163 70.0795C186.703 66.3987 184.545 68.1132 183.178 65.1997C181.811 62.2862 183.801 63.5691 182.722 61.7467C181.643 59.9243 184.173 57.7422 182.722 56.0996C181.271 54.457 181.667 48.9058 181.691 48.5101L182.362 48.63C182.842 48.714 183.322 48.7979 183.789 48.8578C183.913 48.8642 184.037 48.8642 184.161 48.8578H184.365C180.42 48.3538 176.57 47.2753 172.937 45.6566C172.448 45.3491 171.901 45.1447 171.33 45.0561C170.758 44.9674 170.175 44.9963 169.616 45.141C170.737 44.8905 171.912 45.0885 172.889 45.6926C175.108 46.7241 177.427 47.5275 179.808 48.0905C179.484 48.3663 174.208 52.7784 173.741 53.7256C173.273 54.6728 175.923 53.6057 173.741 56.1236C171.558 58.6414 170.827 57.3945 171.342 60.0681C171.746 61.5076 171.692 63.0373 171.186 64.4444C170.851 65.8951 170.083 67.5857 171.186 67.8255C172.29 68.0652 173.033 69.528 172.314 70.2234C171.594 70.9188 169.64 69.504 167.205 71.1945C164.771 72.8851 166.234 73.8802 163.32 75.0792C160.406 76.2782 161.629 74.8514 159.207 77.2733C156.785 79.6952 156.545 78.2325 156.293 80.6664C156.042 83.1003 156.545 84.539 156.293 85.762C155.915 86.7848 155.453 87.7752 154.914 88.7234C155.85 89.2248 156.667 89.9196 157.313 90.7616C158.224 92.0445 157.313 94.0468 161.39 94.5983C165.467 95.1499 163.32 93.867 165.323 92.7759C167.325 91.6848 167.877 90.0902 167.877 87.5244C167.877 84.9587 167.709 85.9178 168.608 85.5581C169.508 85.1985 171.522 86.829 174.064 87.4285C176.606 88.028 176.463 85.5581 178.621 84.2753C179.771 83.5764 180.855 82.7737 181.859 81.8773C182.83 82.5708 183.493 83.6161 183.705 84.7908C184.257 86.9729 184.796 87.8841 186.163 86.2535C187.53 84.6229 186.068 83.9276 188.634 82.6566C191.2 81.3857 189.725 79.3715 192.231 81.0021C194.737 82.6327 196.596 83.4 196.968 83.7597C197.568 84.1544 198.189 84.5186 198.826 84.8507C198.754 86.2415 199.594 86.7811 200.025 89.3708C200.577 92.4642 199.378 92.9677 198.826 93.7351C198.275 94.5024 200.397 98.8427 203.131 98.0274C201.605 99.8685 200.241 101.838 199.054 103.914C196.872 108.291 198.335 108.291 195.792 111.204C193.25 114.117 195.792 123.194 194.317 125.4C192.843 127.606 192.135 127.954 192.507 131.215C192.759 133.517 191.392 136.55 190.564 138.145C190.564 138.145 190.864 136.13 186.223 134.116C186.679 135.579 185.024 135.387 183.765 136.178C182.506 136.97 182.134 138.492 181.919 141.394C181.703 144.295 182.134 145.77 179.784 147.041C177.434 148.312 178.861 148.312 177.949 149.763C177.05 151.201 177.41 151.393 176.319 152.652C175.227 153.911 174.856 155.566 173.585 156.657C172.668 157.489 171.667 158.224 170.599 158.851C168.86 159.942 166.858 158.479 165.143 158.851C163.838 159.204 162.598 159.767 161.474 160.517C160.813 160.466 160.152 160.617 159.579 160.949C158.116 161.764 157.948 162.843 154.123 163.035C150.298 163.227 149.746 159.57 150.67 157.748C151.593 155.925 153.212 154.834 151.389 153.923C149.566 153.012 147.792 154.894 147.792 151.777C147.792 148.66 149.243 146.645 146.868 146.466C144.494 146.286 146.652 145.746 142.228 146.466C137.803 147.185 136.328 148.288 135.597 147.197C134.865 146.106 134.266 144.283 131.999 144.799C130.356 145.207 129.601 143.048 128.294 143.276C127.895 143.402 127.539 143.634 127.263 143.948C127.255 144.666 127.151 145.38 126.951 146.07C126.951 146.07 127.982 149.343 125.752 150.254C125.037 150.44 124.372 150.782 123.804 151.254C123.236 151.727 122.779 152.319 122.466 152.988C121.387 154.63 121.747 154.978 120.644 156.801C119.54 158.623 120.44 159.354 117.91 160.985C122.262 160.625 122.106 161.525 124.828 163.131C127.55 164.738 127.934 163.539 131.723 163.131C135.513 162.724 134.122 164.774 135.573 168.586C137.024 172.399 135.752 173.143 139.17 173.502C142.587 173.862 140.441 174.234 142.156 176.608C143.439 178.382 144.698 177.495 145.238 176.931C144.035 178.21 143 179.636 142.156 181.176C141.505 182.462 141.168 183.883 141.173 185.324C141.173 189.7 143.355 192.614 141.532 194.796C140.333 196.199 137.539 198.501 134.601 201.522C132.867 203.261 131.29 205.151 129.889 207.169C128.09 209.783 127.023 211.449 126.04 212.72C127.059 211.449 128.126 209.783 129.937 207.145C133.942 201.33 139.77 196.954 141.592 194.772C143.415 192.59 141.22 189.676 141.22 185.312C141.22 180.948 144.134 178.394 145.585 176.572C145.659 176.482 145.739 176.398 145.825 176.32L146.173 176.044C146.26 175.977 146.352 175.917 146.449 175.864C146.637 175.74 146.834 175.628 147.036 175.528C147.504 175.289 148.043 175.037 148.631 174.797C150.363 174.103 152.137 173.518 153.943 173.047L154.842 172.807C155.779 172.58 156.728 172.408 157.684 172.291H158.284C158.424 172.304 158.564 172.304 158.704 172.291C158.809 172.278 158.91 172.245 159.003 172.195C160.538 171.596 159.639 168.862 161.534 167.244L161.929 166.932C162.328 166.624 162.763 166.367 163.224 166.165L163.728 165.973C164.043 165.86 164.363 165.764 164.687 165.685C165.035 165.601 165.371 165.517 165.742 165.445L166.69 165.229L167.625 164.966L168.369 164.738C171.007 163.851 172.697 164.642 175.935 163.635C176.815 163.348 177.673 162.995 178.501 162.58L178.945 162.352L179.376 162.1L179.82 161.836C180.219 161.584 180.6 161.303 180.959 160.997L181.331 160.625C183.094 158.815 182.53 157.028 183.657 154.547C185.108 151.273 186.919 150.17 188.382 146.537C189.273 144.211 189.764 141.75 189.833 139.26C189.833 139.26 192.747 134.536 192.375 131.263C192.003 127.99 192.747 127.666 194.198 125.436C195.648 123.206 193.118 114.153 195.66 111.24C198.203 108.326 196.752 108.338 198.934 103.974C201.116 99.61 211.681 88.3877 215.314 82.8605C218.947 77.3332 218.012 64.2286 215.47 62.0584L215.458 62.0944ZM113.917 226.041C116.243 224.734 118.221 219.183 121.291 216.929C118.161 219.123 116.183 224.662 113.917 226.041ZM166.33 45.6686C163.788 44.9492 161.605 38.7506 154.339 36.5804C147.072 34.4103 146.341 32.9835 140.885 32.9835C135.429 32.9835 133.954 30.4178 133.954 27.5282C133.954 24.6387 130.68 22.049 128.138 19.5072C125.596 16.9654 128.498 9.32797 125.224 7.51753C124.994 7.37136 124.729 7.28863 124.457 7.27774C124.705 7.32039 124.945 7.40557 125.164 7.52952C128.45 9.36393 125.536 16.9894 128.078 19.5192C130.62 22.049 133.906 24.6028 133.906 27.5163C133.906 30.4297 135.357 32.9715 140.813 32.9715C145.609 32.9715 146.808 34.0866 151.857 35.8371C152.588 36.0889 153.38 36.3287 154.255 36.6044C161.534 38.7985 163.716 44.9972 166.246 45.7165C166.832 45.8983 167.459 45.8983 168.045 45.7165C167.481 45.8679 166.885 45.8512 166.33 45.6686ZM155.718 92.0326L154.938 91.1693C153.739 89.8025 151.785 87.2847 151.437 85.5701C150.957 83.1722 147.84 85.1265 148.523 83.2921C149.207 81.4577 151.689 80.4865 150.717 79.5154C149.746 78.5442 148.043 79.9949 147.12 77.3332C146.197 74.6715 145.429 73.6764 146.149 73.0769C146.868 72.4774 149.542 61.7947 143.247 60.5957C141.892 61.0393 140.741 61.387 140.333 62.2862C139.362 64.4803 143.487 64.6842 143.247 67.6216C143.007 70.5591 138.882 70.7749 136.94 73.0769C134.997 75.3789 138.391 78.784 135.968 80.7263C133.546 82.6686 131.903 87.4165 131.903 87.4165C125.356 97.8595 131.651 104.406 131.651 104.406C131.651 104.406 131.544 105.101 134.05 106.804C136.964 108.746 135.249 107.295 137.707 106.804C140.165 106.312 139.158 108.003 141.568 107.787C143.978 107.571 145.453 106.888 146.185 107.787L146.305 107.943C146.173 107.655 145.537 106.096 149.099 106.06C153.583 106.06 153.895 107.895 154.854 106.312L154.926 106.18C155.886 104.358 154.015 103.327 153.655 101.768C153.296 100.209 155.562 100.689 154.471 98.6868C153.38 96.6845 151.149 95.5935 152.312 94.5024C153.475 93.4114 156.857 94.4305 155.718 92.0326Z" fill="#007E9B"/>
<path d="M131.699 104.406L129.529 108.003C129.339 110.032 128.498 111.946 127.131 113.458C125.02 115.508 126.076 117.942 124.864 120.856C123.653 123.769 122.19 123.769 119.528 124.992C116.866 126.215 119.528 124.992 117.814 128.145C116.627 130.679 115.819 133.374 115.415 136.143C113.245 135.171 112.274 134.944 111.818 132.378C111.362 129.812 109.875 131.79 107.645 132.378C105.415 132.965 105.247 132.018 103.82 132.378C102.393 132.737 100.654 132.018 97.5126 131.179C94.3709 130.34 95.3182 132.51 93.1358 133.373C91.4134 133.849 89.594 133.849 87.8716 133.373C87.6198 132.258 87.38 131.419 87.38 131.143C86.659 129.025 85.806 126.955 84.8259 124.944C84.7501 124.991 84.678 125.043 84.61 125.1C83.8967 125.596 83.123 125.999 82.3077 126.299C81.5839 126.557 80.8217 126.69 80.0534 126.695H79.5737C79.2364 126.664 78.9029 126.6 78.5785 126.503C78.4226 126.503 78.2907 126.407 78.1348 126.359C77.9261 126.283 77.7253 126.186 77.5352 126.071C77.3607 125.983 77.1924 125.883 77.0316 125.772C76.8491 125.641 76.6768 125.496 76.516 125.34C72.9186 122.067 76.8757 118.29 73.6021 113.446C73.9619 112.667 77.1995 105.521 77.4633 103.699C77.7271 101.876 74.6933 101.013 75.4128 99.5142C76.1323 98.0155 77.3793 98.7948 77.3673 97.3201C77.3554 95.8453 69.4771 95.8813 69.0455 94.1788C68.6138 92.4763 69.2373 91.9967 69.0455 89.8026C68.8536 87.6085 68.1341 90.2941 67.4147 87.4046C67.1862 86.6197 67.2221 85.7815 67.5167 85.0189C67.8114 84.2563 68.3485 83.6117 69.0455 83.1843C69.4674 83.2698 69.8985 83.302 70.3285 83.2802C74.2017 83.0524 83.9026 83.0524 83.9026 83.0524C84.4021 81.5414 84.8026 79.9995 85.1017 78.4364C85.3655 76.7339 87.7877 73.137 87.7877 73.137C89.7303 75.3311 87.8836 74.1081 89.4185 77.753C90.9534 81.3978 90.4617 80.9063 93.1238 84.0595C95.7858 87.2128 103.316 85.2585 106.47 86.0019C109.624 86.7452 131.903 87.4166 131.903 87.4166C125.404 97.8596 131.699 104.406 131.699 104.406Z" fill="#007E9B"/>
<path d="M40.6981 88.2557H39.5709C39.5709 88.2557 35.9735 91.5409 34.1149 92.9917C33.2875 93.6631 32.4361 94.6462 31.5368 95.4855C31.213 95.7493 30.9013 96.025 30.5775 96.2409C30.2537 96.4567 30.1938 96.4926 30.0019 96.5886C29.774 96.712 29.5326 96.8086 29.2824 96.8763L28.8508 96.9722C28.5641 97.0082 28.2741 97.0082 27.9874 96.9722C25.7211 96.6485 24.0423 94.2985 22.1357 94.5743C21.873 94.608 21.6178 94.685 21.3802 94.8021C21.001 94.9974 20.5979 95.1425 20.1811 95.2337C18.0347 95.6773 15.5405 95.0299 16.7277 92.62C18.1906 89.6945 20.7447 85.69 18.1906 85.69C17.8608 85.6927 17.5334 85.7453 17.2193 85.8458C17.0589 85.8833 16.9024 85.9355 16.7516 86.0017C14.941 86.6371 12.7826 88.1718 11.2357 88.6514C11.0152 88.7585 10.7733 88.8142 10.5282 88.8142C10.2831 88.8142 10.0412 88.7585 9.82073 88.6514C8.39377 87.5244 8.75351 85.3423 6.19939 85.702C3.64526 86.0616 0.743391 80.2467 1.11512 75.1511C1.15392 74.4238 1.25827 73.7015 1.42689 72.9929C2.48211 73.1967 17.7829 76.35 21.0565 78.4482C24.3301 80.5464 40.1105 87.98 40.6981 88.2557Z" fill="#007E9B"/>
<path d="M134.601 201.618C132.866 203.357 131.289 205.247 129.889 207.265C128.09 209.879 127.023 211.545 126.039 212.816C125.621 213.364 125.165 213.881 124.672 214.363C124.103 214.896 123.494 215.385 122.85 215.826C122.454 216.113 122.022 216.413 121.519 216.725C121.417 216.785 121.321 216.853 121.231 216.929C118.161 219.123 116.183 224.662 113.856 226.041C113.713 226.126 113.56 226.194 113.401 226.245L113.137 226.317C113.046 226.335 112.952 226.335 112.861 226.317C112.599 226.313 112.341 226.251 112.106 226.137C108.832 224.686 116.602 219.95 109.444 216.317C102.285 212.684 96.8289 212.313 96.0974 210.119C95.3659 207.925 89.9099 210.119 88.459 206.522C88.1712 205.814 88.7708 204.831 89.91 203.632L90.3416 203.201C90.5166 203.019 90.7007 202.847 90.8932 202.685C91.253 202.349 91.6487 202.026 92.0924 201.678L93.0876 200.887C94.2867 199.915 95.7497 198.896 97.1886 197.853C97.3553 197.747 97.5155 197.631 97.6683 197.506L99.1192 196.486L100.09 195.803C100.258 195.695 100.414 195.563 100.57 195.455L101.05 195.12C101.685 194.664 102.309 194.232 102.908 193.777L103.304 193.489L104.503 192.614L105.63 191.75L106.602 190.959C106.985 190.635 107.345 190.312 107.669 190.012C107.901 189.8 108.121 189.576 108.328 189.341C108.472 189.173 108.616 189.029 108.736 188.873C108.884 188.674 109.012 188.461 109.12 188.238C109.23 188.073 109.311 187.89 109.36 187.698C110.367 189.46 113.844 188.573 117.813 188.573C121.783 188.573 125.656 192.398 128.198 194.029C130.74 195.659 132.023 195.132 133.198 196.031C134.373 196.93 132.383 198.944 131.903 200.587C131.423 202.229 134.601 201.618 134.601 201.618Z" fill="#007E9B"/>
<path d="M145.238 177.027C144.035 178.306 143 179.733 142.156 181.272C142.156 181.272 137.527 179.09 135.345 181.272C133.162 183.454 133.342 178.874 129.709 181.272C126.076 183.67 125.524 185.612 123.713 185.252C121.903 184.892 120.032 183.07 117.874 182.854C115.715 182.638 114.132 181.332 110.955 182.854C111.446 181.224 111.398 180.205 109.456 180.396C108.904 180.396 108.341 180.528 107.765 180.612C107.465 180.672 107.153 180.708 106.866 180.756L105.295 180.96C105.031 180.96 104.779 181.032 104.539 181.056L103.856 181.116H103.436C103.186 181.153 102.931 181.153 102.681 181.116H102.489C102.057 181.02 101.829 180.804 101.925 180.432C102.297 179.006 106.158 174.761 104.551 172.195C106.53 173.802 109.732 171.128 111.159 169.174C112.585 167.22 112.789 167.711 114.252 164.99C115.715 162.268 115.343 162.808 117.85 161.165C122.202 160.805 122.047 161.704 124.769 163.311C127.491 164.918 127.874 163.719 131.663 163.311C135.453 162.903 134.062 164.954 135.513 168.766C136.964 172.579 135.693 173.322 139.11 173.682C142.528 174.042 140.381 174.414 142.096 176.787C143.439 178.478 144.698 177.591 145.238 177.027Z" fill="#007E9B"/>
<path d="M217.616 69.3121C217.616 69.3121 213.407 68.7966 211.225 68.4369C209.043 68.0772 206.5 67.6456 206.848 69.3121C207.196 70.9787 207.772 73.5325 205.949 72.4534C204.126 71.3744 201.944 71.4583 202.663 70.0555C203.383 68.6527 206.105 66.0869 204.018 66.0869C201.932 66.0869 198.622 72.1777 195.289 68.4849C195.636 67.9333 196.416 68.0053 197.387 67.3458C199.03 66.2548 198.85 65.3556 199.582 63.7489C200.313 62.1423 204.018 58.5334 204.018 58.5334C204.892 59.2558 205.937 59.7428 207.052 59.9482C210.314 59.9482 212.856 59.9482 215.446 62.1184C216.501 62.9936 217.317 65.9431 217.616 69.3121Z" fill="#007E9B"/>
<path d="M217.616 75.295C217.616 75.295 214.678 74.6715 213.228 75.295C211.854 75.7616 210.515 76.3266 209.222 76.9855C206.68 78.2564 208.947 80.0788 206.44 79.5393C203.934 78.9998 204.462 77.6569 204.042 76.1342C203.623 74.6116 200.877 75.4868 199.977 76.1342C199.078 76.7817 197.135 78.8079 195.085 75.7146C195.672 74.2639 195.792 74.072 195.241 70.8108C195.025 69.48 195.061 68.8325 195.313 68.4848C198.646 72.1657 201.968 66.0869 204.042 66.0869C206.117 66.0869 203.419 68.6287 202.687 70.0555C201.956 71.4823 204.162 71.3624 205.973 72.4534C207.784 73.5445 207.244 70.9787 206.872 69.3121C206.5 67.6456 209.067 68.1132 211.249 68.4369C213.431 68.7606 217.64 69.3121 217.64 69.3121C217.818 71.3028 217.81 73.3058 217.616 75.295Z" fill="#007E9B"/>
<path d="M204.018 58.4975C204.018 58.4975 200.301 62.0944 199.581 63.713C198.862 65.3316 199.03 66.2548 197.387 67.3099C196.416 67.9693 195.636 67.8974 195.289 68.4489C195.037 68.7966 195.001 69.444 195.217 70.7749C195.768 74.0361 195.648 74.2279 195.061 75.6786C194.473 77.1294 193.394 74.4077 191.751 74.2279C190.108 74.0481 185.648 76.3621 184.928 75.4269C184.928 75.3429 184.868 75.247 184.832 75.1511C184.113 72.981 185.564 73.7123 186.103 70.0315C186.643 66.3507 184.485 68.0652 183.118 65.1517C181.751 62.2383 183.741 63.5212 182.662 61.6987C181.583 59.8763 184.113 57.6942 182.662 56.0516C181.211 54.409 181.607 48.8578 181.631 48.4622L182.302 48.5821C182.782 48.666 183.261 48.7499 183.729 48.8099C185.258 49.0746 186.818 49.1109 188.358 48.9178L188.837 48.8219H189.065H189.461C189.529 48.8161 189.597 48.8161 189.665 48.8219C189.804 48.8312 189.941 48.8594 190.072 48.9058C190.2 48.929 190.324 48.9651 190.444 49.0137H190.624L191.284 49.2894L192.267 49.817C192.699 50.0688 193.166 50.3565 193.646 50.6683C193.874 50.8361 194.126 51.004 194.377 51.1598L195.109 51.6994L196.836 52.9823L198.718 54.457L199.426 55.0205L200.049 55.5001L201.14 56.3513C201.452 56.5911 201.764 56.8429 202.076 57.0467C202.783 57.6342 203.419 58.1018 204.018 58.4975Z" fill="#007E9B"/>
<path d="M173.681 56.0636C171.498 58.5574 170.767 57.3345 171.282 60.0082C171.686 61.4477 171.632 62.9773 171.126 64.3844C170.791 65.8351 170.023 67.5257 171.126 67.7655C172.23 68.0053 172.973 69.468 172.254 70.1634C171.534 70.8588 169.58 69.444 167.145 71.1346C164.711 72.8251 166.174 73.8202 163.26 75.0192C160.346 76.2182 161.569 74.7914 159.147 77.2133C156.725 79.6352 156.485 78.1725 156.233 80.6064C155.982 83.0403 156.485 84.479 156.233 85.702C155.877 86.7434 155.436 87.7539 154.914 88.7234C154.699 89.1334 154.564 89.5812 154.519 90.0422C154.537 90.3948 154.653 90.7354 154.854 91.0254C153.655 89.6586 151.701 87.1407 151.353 85.4262C150.873 83.0283 147.756 84.9826 148.439 83.1482C149.123 81.3138 151.605 80.3426 150.633 79.3714C149.662 78.4003 147.959 79.851 147.036 77.1893C146.113 74.5276 145.345 73.5325 146.065 72.933C146.784 72.3335 149.458 61.6508 143.163 60.4518C145.058 59.8043 147.36 58.9531 148.487 56.0156C150.43 50.98 150.681 53.6177 151.893 49.5412C153.104 45.4647 151.893 35.7771 151.893 35.7771C152.624 36.0289 153.415 36.2687 154.291 36.5444C161.569 38.7385 163.752 44.9372 166.282 45.6566C166.868 45.8384 167.495 45.8384 168.081 45.6566C168.572 45.5007 169.028 45.2729 169.556 45.117C170.677 44.8665 171.852 45.0645 172.829 45.6686C175.048 46.7001 177.367 47.5035 179.748 48.0665C179.424 48.3422 174.148 52.7544 173.681 53.7016C173.213 54.6488 175.863 53.5817 173.681 56.0636Z" fill="#007E9B"/>
<path d="M203.191 98.0155C201.643 99.8581 200.259 101.832 199.054 103.914C196.872 108.291 198.334 108.291 195.792 111.204C193.25 114.118 195.792 123.194 194.317 125.4C192.843 127.606 192.135 127.954 192.507 131.215C192.759 133.517 191.392 136.55 190.564 138.145C190.564 138.145 190.864 136.131 186.223 134.116C185.78 132.666 183.957 130.663 184.509 129.752C185.06 128.841 187.95 127.75 188.106 126.299C188.262 124.848 187.734 123.901 185.012 122.486C182.29 121.072 179.76 123.026 179.748 121.383C179.736 119.741 178.093 117.199 176.451 117.559C174.808 117.918 172.637 116.48 170.551 116.839C168.464 117.199 165.539 119.237 165.898 116.839C166.258 114.441 166.99 111.48 164.076 113.554C161.162 115.628 157.648 120.496 153.284 116.863C153.924 116.655 154.502 116.288 154.962 115.796C157.229 113.398 154.135 113.254 153.595 111.864C153.056 110.473 154.639 107.176 154.974 106.42L155.046 106.288C156.006 104.466 154.135 103.435 153.775 101.876C153.415 100.318 155.682 100.797 154.591 98.7949C153.499 96.7926 151.269 95.7015 152.432 94.6105C153.595 93.5194 156.905 94.4906 155.766 92.0926L154.986 91.2294C154.785 90.9393 154.669 90.5988 154.651 90.2462C154.696 89.7852 154.831 89.3374 155.046 88.9274C155.981 89.4288 156.799 90.1236 157.445 90.9656C158.356 92.2485 157.445 94.2508 161.522 94.8023C165.599 95.3538 163.452 94.0709 165.455 92.9799C167.457 91.8888 167.877 90.0904 167.877 87.5246C167.877 84.9588 167.709 85.918 168.608 85.5583C169.508 85.1986 171.522 86.8292 174.064 87.4287C176.606 88.0281 176.463 85.5583 178.621 84.2754C179.771 83.5765 180.855 82.7739 181.859 81.8775C182.83 82.5709 183.493 83.6163 183.705 84.7909C184.257 86.9731 184.796 87.8843 186.163 86.2537C187.53 84.6231 186.068 83.9277 188.634 82.6568C191.2 81.3859 189.725 79.3716 192.231 81.0022C194.737 82.6328 196.596 83.4001 196.967 83.7598C197.568 84.1545 198.189 84.5187 198.826 84.8509C198.754 86.2417 199.594 86.7812 200.025 89.371C200.577 92.4643 199.378 92.9679 198.826 93.7352C198.275 94.5026 200.457 98.8308 203.191 98.0155Z" fill="#007E9B"/>
<path d="M126.855 146.13C126.855 146.13 127.886 149.403 125.656 150.314C124.941 150.5 124.276 150.842 123.708 151.314C123.14 151.787 122.683 152.379 122.37 153.048C121.291 154.691 121.651 155.038 120.548 156.861C119.444 158.683 120.344 159.414 117.814 161.045C115.283 162.676 115.643 162.136 114.216 164.87C112.789 167.603 112.573 167.052 111.122 169.054C109.672 171.056 106.494 173.682 104.515 172.076C104.492 172.029 104.464 171.985 104.431 171.944C102.621 169.402 99.3471 169.402 99.7069 165.038C100.067 160.673 89.5143 163.203 87.3439 159.211C85.1735 155.218 88.7949 152.664 88.4351 147.557C88.0754 142.449 86.9722 143.552 88.0634 140.291C88.5661 138.018 88.4878 135.655 87.8356 133.421C89.5579 133.897 91.3774 133.897 93.0997 133.421C95.2821 132.558 94.2988 130.388 97.4765 131.227C100.654 132.066 102.273 132.761 103.784 132.426C105.295 132.09 105.391 133.013 107.609 132.426C109.827 131.838 111.302 129.86 111.782 132.426C112.262 134.992 113.245 135.219 115.379 136.191C117.514 137.162 122.43 137.162 124.121 139.356C125.812 141.55 126.064 142.749 126.795 143.228C126.904 143.328 126.989 143.45 127.043 143.588C127.097 143.725 127.119 143.873 127.107 144.02C127.118 144.731 127.033 145.441 126.855 146.13Z" fill="#007E9B"/>
<path d="M77.3552 103.687C77.1273 105.509 73.8537 112.703 73.494 113.434C70.2444 108.638 66.9708 110.449 64.8004 108.267C62.63 106.084 61.5148 106.816 56.7903 104.67C52.0657 102.524 45.5665 100.258 45.5665 96.253C45.5665 92.2484 46.6577 88.2559 44.1156 88.2559H40.77C40.77 88.076 42.0411 85.0187 44.1635 85.4743C46.286 85.9299 47.0654 85.0067 49.9673 84.5031C52.8691 83.9995 53.3728 77.2374 57.4977 77.717C61.1671 78.1486 65.4359 82.4409 69.0812 83.1962C68.3843 83.6237 67.8472 84.2683 67.5525 85.0308C67.2579 85.7934 67.222 86.6317 67.4504 87.4166C68.1699 90.3301 68.9014 87.6684 69.0812 89.8145C69.2611 91.9607 68.6496 92.5002 69.0812 94.1907C69.5129 95.8813 77.3552 95.9173 77.3672 97.356C77.3792 98.7948 76.168 98.0994 75.4126 99.5501C74.6572 101.001 77.607 101.744 77.3552 103.687Z" fill="#007E9B"/>
<path d="M84.8258 24.7107C84.2721 26.1434 83.8702 27.6303 83.6267 29.1469C83.2151 29.5944 82.6968 29.9303 82.1201 30.1232C81.5434 30.3161 80.9272 30.3597 80.3291 30.2499C77.9309 29.8543 77.9309 31.6287 76.7318 32.6479C75.6652 33.3363 74.4596 33.7803 73.2012 33.9482C71.9429 34.1161 70.6629 34.0037 69.4531 33.619C66.5393 32.6479 73.5661 41.1365 67.9902 40.1654C62.4143 39.1942 63.8652 36.5685 64.1051 35.3096C64.3449 34.0506 62.9059 32.9116 62.6541 29.7344C62.4023 26.5571 62.8939 26.8209 61.6828 24.8786C60.4717 22.9362 61.6828 20.7541 59.5004 20.4784C57.7845 20.3391 56.0601 20.3391 54.3442 20.4784C55.0637 16.27 53.9725 15.5266 54.3442 13.3565C54.716 11.1864 49.164 7.46959 50.2312 6.37853L50.507 6.10277C50.7828 6.10277 50.507 7.6854 56.7065 8.57263C58.1763 8.82838 59.6768 8.85669 61.1552 8.65656C62.1465 8.52543 63.101 8.19508 63.9612 7.6854C64.3569 7.4576 64.7046 7.20581 65.0284 6.97801C65.4535 6.65709 65.9271 6.40614 66.4314 6.23465C66.7115 6.15025 67.0022 6.10585 67.2947 6.10277C67.5423 6.09714 67.7865 6.04423 68.0142 5.9469C68.3661 5.80697 68.7002 5.62587 69.0095 5.40737C70.6043 4.30432 72.2111 2.11021 73.6381 1.10308C73.8597 0.960283 74.0971 0.843607 74.3455 0.755382C74.459 0.700744 74.5804 0.664328 74.7053 0.647476C74.7728 0.636295 74.8416 0.636295 74.9091 0.647476C74.9765 0.635086 75.0456 0.635086 75.113 0.647476C75.3385 0.688123 75.5494 0.787358 75.7245 0.935227C77.9069 2.75765 72.8107 7.48158 75.7245 8.21294C78.6384 8.94431 79.6696 13.3085 79.6696 17.9845C79.6696 22.6605 79.6696 25.2622 82.5835 25.2622H82.9193C83.225 25.2305 83.5265 25.1662 83.8186 25.0704C84.1392 24.9748 84.4519 24.8545 84.7539 24.7107C84.777 24.7014 84.8028 24.7014 84.8258 24.7107Z" fill="#007E9B"/>
<path d="M87.0681 68.7367C86.0968 69.7079 85.869 70.9308 87.7876 73.1009C87.7876 73.1009 85.3894 76.6978 85.1256 78.4483C84.8265 80.0114 84.4259 81.5533 83.9264 83.0643C83.9264 83.0643 74.2255 83.0643 70.3524 83.2921C69.9224 83.314 69.4913 83.2817 69.0693 83.1962C65.472 82.4409 61.1551 78.1486 57.4858 77.7169C53.3609 77.2374 52.8692 84.0235 49.9554 84.5031C47.0415 84.9827 46.358 85.9658 44.1516 85.4743C41.9452 84.9827 40.7701 88.076 40.7701 88.2558C40.1825 87.9801 24.4741 80.5825 21.1405 78.4483C17.807 76.3142 2.49419 73.1968 1.43896 72.993C2.21839 69.6359 4.02906 68.6048 4.02906 68.6048C4.02906 68.6048 1.83467 62.7778 5.12026 60.9674C7.37461 59.7085 6.69111 58.7973 7.5185 58.1019C7.57333 58.0513 7.63366 58.0071 7.69837 57.97L7.96218 57.8261C8.0701 57.8261 8.17802 57.7302 8.30992 57.6942L8.56174 57.6103L9.07736 57.4784L9.82081 57.3345H9.88077C10.4084 57.2506 10.912 57.1547 11.4037 57.0468L11.9552 56.9269C12.315 56.843 12.6747 56.759 12.9985 56.6631L13.5021 56.5312L14.4015 56.2675L15.2288 56.0037C15.9743 55.7575 16.7067 55.4733 17.4232 55.1524C17.4232 55.1524 17.735 58.2458 19.4857 58.1379C19.6488 58.1333 19.8104 58.1051 19.9654 58.0539H20.0373C22.2077 57.3226 22.5795 44.9492 24.0304 42.4074C25.4813 39.8656 18.9461 33.2953 20.433 30.7535C20.7956 30.0577 21.2695 29.4259 21.836 28.8831L22.2437 28.5714L22.6034 28.3436H22.6634L23.0471 28.1398L23.5507 27.852C23.7289 27.7501 23.9011 27.638 24.0664 27.5163C25.5293 26.4132 21.1285 23.8595 22.6034 22.4087C22.6612 22.3461 22.7256 22.2898 22.7953 22.2408C22.8933 22.1732 23.0031 22.1244 23.1191 22.097H23.3109C24.2342 22.097 25.3134 23.2959 27.6277 23.1281C27.7956 23.1281 27.9875 23.1281 28.2033 23.0681C28.8953 22.949 29.5686 22.7393 30.2059 22.4447C32.1484 21.6174 33.4075 20.9939 34.3188 20.6822C35.7938 20.1906 36.3573 20.5263 37.4845 22.097C39.3072 24.6268 41.0819 26.8089 44.0317 26.8089C44.5841 26.8068 45.1347 26.7465 45.6745 26.6291C46.3238 26.5218 46.9649 26.3695 47.5931 26.1735C48.9583 25.7518 50.2549 25.1339 51.4423 24.339L51.9699 23.9554C52.2517 23.7232 52.52 23.475 52.7733 23.212L53.0491 22.9123C53.6572 22.2353 54.0714 21.4069 54.2482 20.5143C55.9641 20.3751 57.6885 20.3751 59.4044 20.5143C61.5868 20.7901 60.3637 22.9722 61.5868 24.9145C62.8099 26.8569 62.3063 26.6171 62.5581 29.7703C62.8099 32.9236 64.2489 34.1346 64.009 35.3455C63.7692 36.5565 62.3543 39.1462 67.8942 40.1174C73.4341 41.0886 66.4433 32.5999 69.3571 33.5711C70.5669 33.9558 71.8468 34.0682 73.1052 33.9003C74.3635 33.7324 75.5692 33.2883 76.6358 32.5999C77.8349 31.6287 77.8349 29.8543 80.2332 30.202C80.8312 30.3118 81.4474 30.2682 82.0241 30.0753C82.6008 29.8824 83.1191 29.5465 83.5307 29.0989C83.1186 31.0523 83.2345 33.0802 83.8665 34.9739C85.5692 39.0983 88.663 40.3092 90.1739 41.5202C91.6847 42.7312 94.059 42.7192 94.9703 43.9181C95.8817 45.1171 94.9703 46.3161 94.9703 49.0257C94.9703 51.7354 88.0394 67.7655 87.0681 68.7367Z" fill="#007E9B"/>
<path d="M151.845 49.5891C150.646 53.7016 150.382 51.0279 148.439 56.0636C147.312 59.001 145.01 59.8523 143.115 60.4997C141.76 60.9433 140.609 61.291 140.201 62.1903C139.23 64.3844 143.355 64.5882 143.115 67.5257C142.875 70.4631 138.75 70.6789 136.808 72.9809C134.865 75.283 138.259 78.688 135.836 80.6303C133.414 82.5727 131.903 87.4165 131.903 87.4165C131.903 87.4165 109.588 86.6971 106.422 85.9657C103.256 85.2344 95.7378 87.1647 93.0758 84.0234C90.4138 80.8821 90.9054 81.3617 89.3705 77.7169C87.8356 74.072 89.6823 75.3189 87.7397 73.1008C85.7971 70.8828 86.049 69.7078 87.0202 68.7366C87.9915 67.7655 95.0663 51.7593 95.0663 49.1575C95.0663 46.5558 96.0376 45.2729 95.0663 44.0499C94.095 42.827 91.6728 42.851 90.2699 41.652C88.8669 40.453 85.6652 39.2541 83.9625 35.1056C83.3305 33.212 83.2146 31.1841 83.6267 29.2307C83.8702 27.7141 84.2721 26.2273 84.8259 24.7945C85.2575 24.6027 85.7132 24.3749 86.1809 24.1111C86.3128 24.0214 86.4534 23.9451 86.6006 23.8833C88.2466 22.859 89.9479 21.9264 91.6968 21.0897C92.1784 20.8824 92.6872 20.7452 93.2077 20.6821H93.5315C95.486 20.6821 95.9297 21.977 96.829 22.0609H97.1288C97.2284 22.0412 97.3251 22.009 97.4166 21.965C97.8744 21.7358 98.282 21.4179 98.6157 21.0298C99.7508 19.7942 100.991 18.659 102.321 17.6367C102.427 17.5601 102.54 17.492 102.657 17.4329L102.957 17.301C103.048 17.2509 103.144 17.2107 103.244 17.1811C103.405 17.1275 103.57 17.0835 103.736 17.0492H104.012C105.211 17.0492 110.415 19.0995 114.192 18.3321C114.387 18.2969 114.579 18.2489 114.768 18.1883C114.948 18.1283 115.116 18.0803 115.283 18.0084L115.679 17.8286C115.877 17.7256 116.066 17.6052 116.243 17.4689C116.426 17.343 116.598 17.2026 116.758 17.0492C118.821 14.999 120.356 11.0544 121.915 8.88428C122.023 8.74041 122.13 8.59653 122.238 8.47664C122.346 8.33744 122.466 8.20895 122.598 8.09297C122.791 7.91095 123 7.74644 123.222 7.60139L123.438 7.49349C123.584 7.42935 123.737 7.38111 123.893 7.34961H124.361C124.609 7.39227 124.849 7.47744 125.068 7.60139C128.354 9.43581 125.44 17.0612 127.982 19.591C130.524 22.1209 133.81 24.6747 133.81 27.5881C133.81 30.5016 135.261 33.0434 140.717 33.0434C145.513 33.0434 146.712 34.1585 151.761 35.909C151.845 35.825 153.056 45.4527 151.845 49.5891Z" fill="#007E9B"/>
<path d="M83.9385 28.7751C83.8395 28.9286 83.7272 29.0731 83.6028 29.2068" stroke="white" stroke-width="1.06445" stroke-miterlimit="10"/>
<path d="M54.2484 20.3823H54.1882" stroke="white" stroke-width="1.06445" stroke-miterlimit="10"/>
<path d="M104.539 172.075C104.488 172.05 104.442 172.013 104.407 171.968" stroke="white" stroke-width="1.06445" stroke-miterlimit="10"/>
<path d="M87.8598 133.421H87.7876" stroke="white" stroke-width="1.06445" stroke-miterlimit="10"/>
<path d="M154.902 91.1213C155.122 91.4432 155.384 91.7336 155.682 91.9846" stroke="white" stroke-width="1.06445" stroke-miterlimit="10"/>
<path d="M203.204 98.0154H203.191" stroke="white" stroke-width="1.06445" stroke-miterlimit="10"/>
<path d="M127.167 144.008C126.931 144.238 126.715 144.486 126.519 144.751" stroke="white" stroke-width="1.06445" stroke-miterlimit="10"/>
<path d="M154.914 115.736C154.454 116.228 153.876 116.595 153.236 116.803C151.449 117.415 149.83 116.719 149.542 118.65C149.171 121.191 152.276 121.563 149.542 123.206C146.808 124.848 144.818 123.026 145.813 125.927C146.808 128.829 148.619 130.304 147.54 132.306C146.461 134.308 148.619 134.248 146.449 136.179C144.278 138.109 141.532 138.672 138.055 138.301C134.577 137.929 134.349 136.886 131.927 138.409C129.505 139.931 131.759 142.005 128.222 143.324C127.823 143.45 127.467 143.682 127.191 143.996C127.203 143.849 127.181 143.701 127.127 143.564C127.073 143.426 126.988 143.303 126.879 143.204C126.147 142.725 125.908 141.502 124.205 139.332C122.502 137.162 117.658 137.138 115.463 136.167C115.866 133.398 116.674 130.703 117.861 128.169C119.576 125.016 116.902 126.227 119.576 125.016C122.25 123.805 123.701 123.817 124.912 120.88C126.123 117.942 125.068 115.532 127.179 113.482C128.546 111.97 129.387 110.056 129.577 108.027L131.747 104.43C131.747 104.538 131.639 105.125 134.146 106.828C137.059 108.77 135.345 107.319 137.803 106.828C140.261 106.336 139.254 108.027 141.664 107.811C144.074 107.595 145.549 106.912 146.281 107.811L146.401 107.967C146.269 107.679 145.633 106.12 149.194 106.085C153.679 106.085 153.991 107.919 154.95 106.336C154.615 107.092 153.08 110.533 153.571 111.78C154.063 113.027 157.181 113.374 154.914 115.736Z" fill="#007E9B"/>
<path d="M188.118 126.299C187.926 127.75 185.024 128.841 184.521 129.752C184.017 130.663 185.792 132.665 186.235 134.116C186.679 135.567 185.036 135.387 183.777 136.178C182.518 136.97 182.146 138.492 181.931 141.394C181.715 144.295 182.146 145.77 179.796 147.041C177.446 148.312 178.873 148.312 177.961 149.763C177.062 151.201 177.422 151.393 176.331 152.652C175.239 153.911 174.868 155.566 173.597 156.657C172.68 157.489 171.679 158.224 170.611 158.851C168.872 159.942 166.87 158.479 165.155 158.851C163.85 159.204 162.61 159.767 161.486 160.517C160.825 160.466 160.164 160.617 159.591 160.949C158.128 161.764 157.96 162.843 154.135 163.035C150.31 163.227 149.758 159.57 150.681 157.748C151.605 155.925 153.224 154.834 151.401 153.923C149.578 153.012 147.804 154.894 147.804 151.777C147.804 148.66 149.255 146.645 146.88 146.466C144.506 146.286 146.664 145.746 142.24 146.466C137.815 147.185 136.34 148.288 135.609 147.197C134.877 146.106 134.278 144.283 132.011 144.799C130.368 145.207 129.613 143.048 128.306 143.276C131.903 141.945 129.589 139.895 132.011 138.361C134.433 136.826 134.673 137.905 138.139 138.253C141.604 138.6 144.314 138.073 146.533 136.13C148.751 134.188 146.533 134.248 147.624 132.258C148.715 130.268 146.88 128.793 145.897 125.879C144.914 122.966 146.88 124.8 149.626 123.158C152.372 121.515 149.255 121.143 149.626 118.602C149.914 116.671 151.533 117.403 153.32 116.755C157.744 120.352 161.27 115.556 164.112 113.446C166.954 111.336 166.306 114.237 165.934 116.731C165.563 119.225 168.488 117.151 170.587 116.731C172.685 116.312 174.844 117.822 176.487 117.451C178.129 117.079 179.772 119.645 179.784 121.275C179.796 122.906 182.314 120.916 185.048 122.378C187.782 123.841 188.262 124.848 188.118 126.299Z" fill="#007E9B"/>
<path d="M43.612 88.2797H39.2472C39.2472 88.2797 35.6499 91.5529 33.7912 93.0036C31.9326 94.4544 30.1939 97.3679 27.6038 97.0082C25.0137 96.6485 23.227 93.735 21.0446 94.8261C18.8622 95.9171 14.8571 95.5814 16.3201 92.6559C17.783 89.7305 20.3851 85.7259 17.771 85.7259C15.1569 85.7259 10.8641 89.7305 9.37717 88.6394C7.89026 87.5484 8.28597 85.3662 5.77981 85.7259C3.27365 86.0856 0.29983 80.3306 0.671557 75.175C1.04328 70.0195 3.59741 68.6287 3.59741 68.6287C3.59741 68.6287 1.41501 62.8017 4.68861 60.9793C7.96221 59.1569 5.04834 58.0778 9.41314 57.3824C12.0348 56.9277 14.5971 56.1796 17.0515 55.1523C17.0515 55.1523 17.4113 58.7492 19.5937 58.0658C21.7761 57.3824 22.1358 44.9611 23.5987 42.4793C25.0617 39.9974 18.5025 33.3791 20.0014 30.8253C21.5003 28.2715 22.1838 28.6432 23.5987 27.5522C25.0137 26.4611 20.6489 23.9553 22.1238 22.4565C23.5987 20.9578 24.6899 24.6387 29.7862 22.4565C34.8824 20.2744 35.2422 19.567 37.0648 22.1089C38.8875 24.6507 40.6622 26.8328 43.612 26.8328C46.5619 26.8328 53.0731 24.7106 53.8046 20.4902C54.536 16.2699 53.4448 15.5505 53.8046 13.3684C54.1643 11.1863 48.7083 7.54143 49.7995 6.45037C50.8907 5.35931 48.7083 7.54143 56.3467 8.63249C63.9851 9.72354 63.9971 6.23456 66.9109 6.15063C69.8248 6.0667 73.1464 -0.875306 75.2808 0.947121C77.4152 2.76955 72.3669 7.49347 75.2808 8.22484C78.1947 8.95621 79.2739 13.3204 79.2739 18.0444C79.2739 22.7683 79.2739 25.3221 82.1877 25.3221C85.1016 25.3221 90.1978 20.5982 93.1117 20.5982C96.0256 20.5982 95.6538 23.4996 98.208 20.9578C100.762 18.416 102.213 16.9533 103.664 16.9533C105.115 16.9533 113.125 20.2265 116.399 16.9533C119.672 13.6801 121.495 5.67104 124.792 7.49347C128.09 9.3159 125.164 16.9533 127.706 19.4831C130.248 22.0129 133.534 24.5667 133.534 27.4802C133.534 30.3937 134.985 32.9355 140.441 32.9355C145.897 32.9355 146.628 34.3982 153.907 36.5324C161.186 38.6666 163.368 44.9252 165.898 45.6325C168.428 46.3399 168.812 43.8101 172.445 45.6325C176.079 47.455 184.82 49.721 188.466 48.7618C192.111 47.8027 203.383 59.9482 206.656 59.9482C209.93 59.9482 212.484 59.9482 215.05 62.1303C217.616 64.3124 218.648 77.4171 215.05 82.8724C211.453 88.3277 200.853 99.6579 198.67 103.986C196.488 108.314 197.951 108.35 195.397 111.264C192.842 114.177 195.397 123.254 193.946 125.448C192.495 127.642 191.763 128.013 192.123 131.287C192.483 134.56 189.581 139.284 189.581 139.284C189.51 141.775 189.015 144.236 188.118 146.561C186.667 150.158 184.844 151.285 183.393 154.558C181.942 157.832 183.393 160.026 178.297 162.568C173.201 165.109 171.378 163.659 168.105 164.75C164.831 165.841 163.368 165.481 161.186 167.303C159.003 169.126 160.466 172.399 157.912 172.399C155.358 172.399 146.628 174.941 145.177 176.763C143.727 178.586 140.813 181.128 140.813 185.492C140.813 189.856 142.995 192.77 141.172 194.952C139.35 197.134 133.51 201.426 129.505 207.265C125.5 213.104 125.14 214.183 121.111 216.725C117.082 219.267 114.924 227.647 111.65 226.185C108.377 224.722 116.135 219.998 108.976 216.365C101.817 212.732 96.3613 212.361 95.6299 210.178C94.8984 207.996 89.4424 210.178 87.9915 206.582C86.5405 202.985 108.125 191.654 108.976 187.65C109.827 183.645 112.489 180.013 108.976 180.372C105.463 180.732 101.086 181.835 101.458 180.372C101.829 178.909 105.822 174.557 104 171.979C102.177 169.402 98.9035 169.438 99.2752 165.073C99.6469 160.709 89.0827 163.251 86.9003 159.246C84.7179 155.242 88.3512 152.7 87.9915 147.605C87.6317 142.509 86.5285 143.6 87.6197 140.327C88.7109 137.054 86.9003 131.934 86.9003 131.239C86.1815 129.12 85.3284 127.05 84.3461 125.04C84.3461 125.04 79.6216 128.637 75.9523 125.4C72.283 122.162 76.324 118.35 73.0384 113.506C69.7529 108.662 66.4912 110.485 64.3088 108.302C62.1264 106.12 61.0353 106.84 56.2987 104.706C51.5622 102.571 45.027 100.341 45.027 96.3128C45.027 92.2843 46.1662 88.2797 43.612 88.2797Z" stroke="white" stroke-width="1.06445" stroke-miterlimit="10"/>
<path d="M53.8044 20.4423C55.5398 20.2894 57.2853 20.2894 59.0206 20.4423C61.1551 20.7181 59.9559 22.9002 61.155 24.8425C62.3542 26.7848 61.8865 26.533 62.1263 29.6384C62.3662 32.7437 63.8291 34.0026 63.5773 35.2255C63.3255 36.4485 61.8865 39.0982 67.4624 40.0214C73.0383 40.9446 66.0594 32.5998 68.9733 33.571C70.181 33.9563 71.4592 34.0691 72.7157 33.9012C73.9722 33.7332 75.1759 33.2888 76.24 32.5998C77.4391 31.6286 77.4391 29.8542 79.8373 30.2019C80.5216 30.3057 81.2212 30.2159 81.857 29.9425C82.4928 29.6692 83.0394 29.2232 83.4347 28.6552" stroke="white" stroke-width="1.06445" stroke-miterlimit="10"/>
<path d="M84.442 24.7107C84.442 24.7107 81.8279 30.8974 83.5307 35.0218C85.2334 39.1462 88.3272 40.3692 89.8381 41.5801C91.3489 42.7911 93.7112 42.7791 94.6345 43.9781C95.5579 45.177 94.6345 46.376 94.6345 49.0737C94.6345 51.7713 87.5957 67.7535 86.6364 68.7247C85.6771 69.6959 85.4373 70.9068 87.3559 73.0889C89.2745 75.271 87.4638 74.0601 88.9867 77.693C90.5096 81.3258 90.0299 80.8582 92.692 84.0115C95.354 87.1648 102.884 85.2105 106.038 85.9418C109.192 86.6732 131.519 87.4046 131.519 87.4046C131.519 87.4046 132.97 82.5368 135.393 80.6064C137.815 78.6761 134.433 75.259 136.364 72.957C138.294 70.655 142.431 70.4272 142.671 67.5137C142.911 64.6003 138.798 64.3605 139.769 62.1783C140.741 59.9962 146.077 61.0753 148.019 56.0516C149.962 51.028 150.202 53.6537 151.413 49.5532C152.624 45.4528 151.413 35.8011 151.413 35.8011" stroke="white" stroke-width="1.06445" stroke-miterlimit="10"/>
<path d="M0.995361 72.981C0.995361 72.981 17.2914 76.2661 20.6849 78.4482C24.0784 80.6304 40.3385 88.2798 40.3385 88.2798C40.3385 88.2798 41.5376 85.0066 43.732 85.4862C45.9264 85.9658 46.6459 85.0066 49.5597 84.515C52.4736 84.0234 52.9532 77.2373 57.0782 77.7169C61.2032 78.1965 66.0596 83.5438 69.9328 83.3041C73.8059 83.0643 83.5308 83.0643 83.5308 83.0643C84.0283 81.5527 84.4288 80.0108 84.7299 78.4482C84.9817 76.7337 87.4039 73.1368 87.4039 73.1368" stroke="white" stroke-width="1.06445" stroke-miterlimit="10"/>
<path d="M73.1464 113.494C73.1464 113.494 76.7438 105.617 77.0316 103.687C77.3194 101.756 74.3455 101.013 75.029 99.5141C75.7125 98.0154 77.0076 98.7948 76.9836 97.332C76.9596 95.8693 69.0934 95.9172 68.6617 94.2147C68.23 92.5122 68.8416 92.0326 68.6617 89.8505C68.4818 87.6684 67.7504 90.3421 67.0309 87.4526C66.8037 86.6658 66.84 85.8263 67.1345 85.0622C67.4289 84.298 67.9653 83.6511 68.6617 83.2202" stroke="white" stroke-width="1.06445" stroke-miterlimit="10"/>
<path d="M87.4038 133.409C89.1507 133.884 90.993 133.884 92.7399 133.409C94.9343 132.546 93.939 130.376 97.1167 131.227C100.294 132.078 101.913 132.761 103.424 132.426C104.935 132.09 105.031 133.013 107.261 132.426C109.492 131.838 110.943 129.86 111.422 132.426C111.902 134.992 112.885 135.231 115.02 136.202C117.154 137.174 122.058 137.174 123.749 139.356C125.44 141.538 125.692 142.749 126.423 143.24C127.155 143.732 126.423 146.142 126.423 146.142C126.423 146.142 127.454 149.427 125.224 150.326C124.511 150.514 123.848 150.856 123.283 151.329C122.717 151.801 122.262 152.392 121.95 153.06C120.859 154.703 121.219 155.062 120.128 156.885C119.037 158.707 119.912 159.426 117.382 161.069C114.852 162.712 115.211 162.16 113.784 164.882C112.357 167.603 112.142 167.076 110.691 169.066C109.24 171.056 105.894 173.862 103.952 171.98" stroke="white" stroke-width="1.06445" stroke-miterlimit="10"/>
<path d="M115.116 136.19C115.521 133.418 116.329 130.72 117.514 128.181C119.229 125.028 116.555 126.239 119.229 125.028C121.903 123.817 123.354 123.829 124.565 120.904C125.776 117.978 124.733 115.556 126.831 113.494C128.194 111.984 129.034 110.075 129.229 108.051L131.424 104.454C131.424 104.454 125.104 97.9076 131.663 87.4766" stroke="white" stroke-width="1.06445" stroke-miterlimit="10"/>
<path d="M179.376 48.0544C179.376 48.0544 173.776 52.7304 173.297 53.7016C172.817 54.6727 175.479 53.5817 173.297 56.0995C171.114 58.6173 170.383 57.3704 170.899 60.0321C171.296 61.4716 171.246 62.9981 170.755 64.4083C170.407 65.8591 169.639 67.5616 170.755 67.8014C171.87 68.0412 172.589 69.5039 171.87 70.1993C171.15 70.8947 169.196 69.4799 166.774 71.1705C164.351 72.861 165.802 73.8442 162.888 75.0551C159.975 76.2661 161.186 74.8153 158.763 77.2372C156.341 79.6591 156.089 78.1964 155.85 80.6303C155.61 83.0642 156.089 84.515 155.85 85.7259C155.61 86.9369 154.147 89.131 154.147 90.0901C154.147 91.0493 155.346 92.0325 155.346 92.0325C155.346 92.0325 151.461 87.908 150.969 85.4861C150.478 83.0642 147.372 85.0425 148.067 83.1961C148.763 81.3497 151.221 80.3905 150.25 79.4193C149.278 78.4482 147.576 79.9109 146.652 77.2372C145.729 74.5635 144.962 73.5804 145.681 72.9809C146.401 72.3814 149.075 61.7106 142.767 60.4997" stroke="white" stroke-width="1.06445" stroke-miterlimit="10"/>
<path d="M131.328 104.406C131.328 104.406 130.836 104.897 133.726 106.804C136.616 108.71 134.925 107.295 137.323 106.804C139.721 106.312 138.786 108.003 141.208 107.787C143.631 107.571 145.093 106.888 145.813 107.787C146.532 108.686 144.122 106.096 148.727 106.072C153.331 106.048 153.595 107.991 154.555 106.18C155.514 104.37 153.643 103.327 153.283 101.78C152.924 100.233 155.19 100.689 154.099 98.6868C153.008 96.6846 150.777 95.5935 151.94 94.5024C153.104 93.4114 156.413 94.3945 155.286 91.9846" stroke="white" stroke-width="1.06445" stroke-miterlimit="10"/>
<path d="M181.247 48.4741C181.247 48.4741 180.815 54.4689 182.278 56.0756C183.741 57.6822 181.175 59.8883 182.278 61.7107C183.381 63.5331 181.379 62.2622 182.734 65.1637C184.089 68.0652 186.331 66.3627 185.732 70.0435C185.132 73.7243 183.729 72.993 184.461 75.1751C185.192 77.3572 186.091 77.1773 184.281 79.1796C182.549 81.1691 180.528 82.8868 178.285 84.2752C176.103 85.5461 176.283 88.028 173.729 87.4285C171.174 86.829 169.184 85.1864 168.273 85.5461C167.361 85.9058 167.541 84.9466 167.541 87.5244C167.541 90.1022 167.001 91.7328 164.999 92.8238C162.996 93.9149 165.131 95.2218 161.066 94.6463C157.001 94.0708 157.9 92.0925 156.989 90.8216C156.341 89.9818 155.524 89.2874 154.591 88.7833" stroke="white" stroke-width="1.06445" stroke-miterlimit="10"/>
<path d="M203.635 58.5095C203.635 58.5095 199.929 62.1064 199.198 63.713C198.466 65.3196 198.646 66.2668 197.015 67.3099C195.385 68.353 194.281 67.4898 194.833 70.7629C195.385 74.0361 195.277 74.216 194.689 75.6787C194.102 77.1414 193.01 74.3958 191.368 74.216C189.725 74.0361 184.521 76.7458 184.461 75.1272" stroke="white" stroke-width="1.06445" stroke-miterlimit="10"/>
<path d="M217.233 69.3122C217.233 69.3122 213.024 68.8086 210.841 68.4489C208.659 68.0892 206.117 67.6456 206.476 69.3122C206.836 70.9787 207.388 73.5445 205.565 72.4414C203.742 71.3384 201.56 71.4703 202.292 70.0435C203.023 68.6168 205.709 66.075 203.635 66.075C201.56 66.075 198.238 72.1657 194.893 68.4729" stroke="white" stroke-width="1.06445" stroke-miterlimit="10"/>
<path d="M217.233 75.295C217.233 75.295 214.295 74.6835 212.844 75.295C211.474 75.7772 210.136 76.3458 208.839 76.9975C206.297 78.2684 208.563 80.0908 206.057 79.5393C203.551 78.9878 204.078 77.6689 203.659 76.1462C203.239 74.6235 200.493 75.4868 199.582 76.1462C198.67 76.8056 196.752 78.8199 194.713 75.7266" stroke="white" stroke-width="1.06445" stroke-miterlimit="10"/>
<path d="M215.026 82.8125C213.884 82.613 212.715 82.613 211.573 82.8125C210.11 83.1842 209.174 83.7237 207.208 84.4551C205.241 85.1864 204.654 85.726 202.651 84.4551C200.649 83.1842 199.198 81.7814 198.646 83.9395C198.095 86.0976 199.198 86.2775 199.737 89.3708C200.277 92.4641 199.078 92.9677 198.538 93.735C197.999 94.5024 200.121 98.8426 202.855 98.0153" stroke="white" stroke-width="1.06445" stroke-miterlimit="10"/>
<path d="M181.523 81.9014C182.491 82.5984 183.152 83.6421 183.369 84.8149C183.909 86.997 184.449 87.9082 185.768 86.2776C187.087 84.647 185.684 83.9516 188.166 82.6807C190.648 81.4098 189.257 79.3836 191.763 81.0262C194.269 82.6687 196.128 83.4241 196.488 83.7718C198.319 84.7771 200.082 85.9026 201.764 87.1409C203.227 88.4837 206.68 88.9034 207.592 92.0566" stroke="white" stroke-width="1.06445" stroke-miterlimit="10"/>
<path d="M134.217 201.618C134.217 201.618 131.076 202.169 131.567 200.539C132.059 198.908 134.05 196.942 132.862 195.983C131.675 195.024 130.464 195.623 127.862 193.981C125.26 192.338 121.459 188.525 117.478 188.525C113.497 188.525 109.971 189.436 109 187.614" stroke="white" stroke-width="1.06445" stroke-miterlimit="10"/>
<path d="M141.772 181.272C141.772 181.272 137.143 179.102 134.961 181.272C132.779 183.442 132.958 178.874 129.325 181.272C125.692 183.67 125.14 185.612 123.33 185.252C121.519 184.892 119.648 183.082 117.49 182.854C115.331 182.626 113.737 181.308 110.523 182.854" stroke="white" stroke-width="1.06445" stroke-miterlimit="10"/>
<path d="M145.154 176.704C144.987 177.006 144.742 177.258 144.445 177.434C144.147 177.609 143.808 177.702 143.463 177.702C143.117 177.702 142.778 177.609 142.481 177.434C142.184 177.258 141.939 177.006 141.772 176.704C140.057 174.306 142.24 173.97 138.786 173.61C135.333 173.251 136.604 172.519 135.189 168.694C133.774 164.87 135.189 162.867 131.34 163.239C127.49 163.611 127.179 164.786 124.457 163.239C121.735 161.693 121.819 160.661 117.514 161.057" stroke="white" stroke-width="1.06445" stroke-miterlimit="10"/>
<path d="M161.162 167.244C161.162 167.244 166.258 164.69 164.255 162.448C162.253 160.206 160.658 160.11 159.159 160.913C157.66 161.716 157.528 162.807 153.703 162.999C149.878 163.191 149.338 159.534 150.25 157.724C151.161 155.913 152.792 154.81 150.969 153.899C149.147 152.988 147.372 154.858 147.372 151.741C147.372 148.624 148.823 146.621 146.461 146.442C144.098 146.262 146.245 145.71 141.808 146.442C137.371 147.173 135.908 148.252 135.177 147.161C134.445 146.07 133.846 144.259 131.579 144.763C129.313 145.267 128.798 141.166 126.147 144.667" stroke="white" stroke-width="1.06445" stroke-miterlimit="10"/>
<path d="M154.615 106.228C154.615 106.228 152.612 110.413 153.152 111.803C153.691 113.194 156.749 113.386 154.519 115.748C152.288 118.11 149.518 116.108 149.159 118.662C148.799 121.215 151.881 121.575 149.159 123.206C146.437 124.836 144.434 123.026 145.429 125.939C146.425 128.853 148.247 130.303 147.156 132.306C146.065 134.308 148.247 134.248 146.065 136.19C143.882 138.133 141.148 138.672 137.671 138.313C134.194 137.953 133.966 136.886 131.543 138.42C129.121 139.955 131.4 142.017 127.802 143.348" stroke="white" stroke-width="1.06445" stroke-miterlimit="10"/>
<path d="M161.054 160.541C162.182 159.796 163.42 159.234 164.723 158.875C166.438 158.503 168.44 159.966 170.167 158.875C171.248 158.261 172.258 157.529 173.177 156.693C174.448 155.59 174.808 153.959 175.899 152.688C176.99 151.417 176.63 151.225 177.542 149.775C178.453 148.324 177.026 148.312 179.376 147.041C181.727 145.77 181.307 144.319 181.523 141.406C181.739 138.492 182.086 136.982 183.37 136.19C184.653 135.399 186.259 135.579 185.768 134.128C185.276 132.677 183.501 130.663 184.041 129.764C184.581 128.865 187.506 127.762 187.638 126.299C187.77 124.836 187.267 123.901 184.545 122.486C181.823 121.071 179.292 123.026 179.281 121.395C179.269 119.765 177.626 117.211 175.995 117.57C174.364 117.93 172.17 116.479 170.071 116.839C167.973 117.199 165.071 119.237 165.431 116.839C165.79 114.441 166.522 111.492 163.62 113.554C160.718 115.616 157.181 120.496 152.756 116.875" stroke="white" stroke-width="1.06445" stroke-miterlimit="10"/>
<path d="M190.157 138.145C190.157 138.145 190.456 136.13 185.816 134.128" stroke="white" stroke-width="1.06445" stroke-miterlimit="10"/>
<path d="M183.369 154.499C183.369 154.499 181.835 155.494 179.376 153.228C176.918 150.962 177.542 149.775 177.542 149.775" stroke="white" stroke-width="1.06445" stroke-miterlimit="10"/>
<path d="M117.514 47.3233C117.008 47.3217 116.507 47.4201 116.039 47.613C115.571 47.8059 115.146 48.0893 114.789 48.447C114.431 48.8047 114.147 49.2296 113.954 49.6972C113.762 50.1649 113.663 50.6661 113.665 51.1719C113.665 54.0495 117.514 58.3657 117.514 58.3657C117.514 58.3657 121.363 54.1094 121.363 51.1719C121.363 50.1512 120.958 49.1723 120.236 48.4505C119.514 47.7287 118.535 47.3233 117.514 47.3233ZM117.514 52.5388C117.24 52.5411 116.972 52.462 116.743 52.3114C116.515 52.1608 116.336 51.9456 116.23 51.6932C116.124 51.4407 116.096 51.1625 116.149 50.8939C116.202 50.6254 116.333 50.3786 116.527 50.185C116.72 49.9915 116.967 49.8599 117.236 49.8071C117.504 49.7543 117.783 49.7826 118.035 49.8884C118.288 49.9943 118.503 50.1729 118.653 50.4014C118.804 50.63 118.883 50.8982 118.881 51.1719C118.878 51.5335 118.733 51.8793 118.477 52.135C118.221 52.3906 117.875 52.5356 117.514 52.5388Z" fill="white"/>
<path d="M98.6756 100.713C97.6547 100.713 96.6757 101.119 95.9538 101.84C95.232 102.562 94.8264 103.541 94.8264 104.562C94.8264 107.451 98.6756 111.756 98.6756 111.756C98.6756 111.756 102.525 107.499 102.525 104.562C102.525 103.541 102.119 102.562 101.397 101.84C100.676 101.119 99.6965 100.713 98.6756 100.713ZM98.6756 105.941C98.4029 105.941 98.1362 105.86 97.9095 105.708C97.6827 105.557 97.5059 105.341 97.4016 105.089C97.2972 104.838 97.2699 104.56 97.3231 104.293C97.3763 104.025 97.5076 103.78 97.7005 103.587C97.8934 103.394 98.1391 103.263 98.4066 103.209C98.6741 103.156 98.9513 103.184 99.2033 103.288C99.4553 103.392 99.6707 103.569 99.8222 103.796C99.9737 104.023 100.055 104.289 100.055 104.562C100.055 104.929 99.9097 105.281 99.6514 105.541C99.3932 105.802 99.0424 105.949 98.6756 105.953V105.941Z" fill="white"/>
<path d="M50.531 45.6687C49.5122 45.6719 48.5363 46.0788 47.817 46.8002C47.0977 47.5216 46.6938 48.4987 46.6938 49.5174C46.6938 52.4069 50.531 56.7112 50.531 56.7112C50.531 56.7112 54.3802 52.4548 54.3802 49.5174C54.3802 48.4966 53.9747 47.5177 53.2528 46.796C52.5309 46.0742 51.5519 45.6687 50.531 45.6687ZM50.531 50.8962C50.2583 50.8962 49.9917 50.8153 49.7649 50.6638C49.5381 50.5123 49.3614 50.297 49.257 50.045C49.1526 49.7931 49.1253 49.5158 49.1785 49.2484C49.2317 48.9809 49.3631 48.7352 49.5559 48.5424C49.7488 48.3496 49.9945 48.2183 50.262 48.1651C50.5295 48.1119 50.8068 48.1392 51.0587 48.2435C51.3107 48.3479 51.5261 48.5246 51.6776 48.7514C51.8291 48.9781 51.91 49.2447 51.91 49.5174C51.91 49.8831 51.7647 50.2338 51.5061 50.4923C51.2475 50.7509 50.8968 50.8962 50.531 50.8962Z" fill="white"/>
<path d="M141.292 151.645C140.271 151.645 139.292 152.051 138.571 152.772C137.849 153.494 137.443 154.473 137.443 155.494C137.443 158.371 141.292 162.628 141.292 162.628C141.292 162.628 145.141 158.371 145.141 155.494C145.141 154.473 144.736 153.494 144.014 152.772C143.292 152.051 142.313 151.645 141.292 151.645ZM141.292 156.861C141.019 156.861 140.752 156.779 140.525 156.627C140.298 156.475 140.121 156.259 140.017 156.007C139.913 155.754 139.887 155.476 139.941 155.208C139.995 154.94 140.127 154.695 140.322 154.502C140.516 154.31 140.762 154.18 141.031 154.128C141.299 154.076 141.577 154.105 141.828 154.211C142.08 154.318 142.295 154.496 142.445 154.724C142.595 154.953 142.674 155.22 142.671 155.494C142.668 155.857 142.521 156.205 142.263 156.461C142.005 156.717 141.656 156.861 141.292 156.861Z" fill="white"/>
<path d="M121.471 166.524C120.965 166.524 120.465 166.624 119.998 166.817C119.531 167.011 119.107 167.294 118.749 167.651C118.392 168.009 118.108 168.433 117.915 168.9C117.721 169.367 117.622 169.867 117.622 170.373C117.622 173.262 121.471 177.567 121.471 177.567C121.471 177.567 125.308 173.31 125.308 170.373C125.308 169.354 124.904 168.377 124.185 167.656C123.466 166.934 122.49 166.527 121.471 166.524ZM121.471 171.752C121.198 171.754 120.93 171.675 120.702 171.525C120.473 171.375 120.295 171.161 120.188 170.909C120.082 170.657 120.053 170.38 120.105 170.111C120.157 169.843 120.287 169.596 120.48 169.402C120.672 169.208 120.918 169.076 121.185 169.021C121.453 168.967 121.731 168.994 121.984 169.098C122.236 169.202 122.453 169.379 122.605 169.606C122.757 169.833 122.838 170.1 122.838 170.373C122.838 170.736 122.694 171.085 122.438 171.344C122.182 171.602 121.835 171.748 121.471 171.752Z" fill="white"/>
<path d="M105.271 141.478C104.25 141.478 103.271 141.883 102.549 142.605C101.827 143.327 101.422 144.306 101.422 145.326C101.422 148.216 105.271 152.52 105.271 152.52C105.271 152.52 109.12 148.264 109.12 145.326C109.12 144.306 108.714 143.327 107.993 142.605C107.271 141.883 106.292 141.478 105.271 141.478ZM105.271 146.705C104.998 146.705 104.731 146.624 104.505 146.473C104.278 146.321 104.101 146.106 103.997 145.854C103.892 145.602 103.865 145.325 103.918 145.057C103.972 144.79 104.103 144.544 104.296 144.351C104.489 144.159 104.734 144.027 105.002 143.974C105.269 143.921 105.547 143.948 105.799 144.053C106.05 144.157 106.266 144.334 106.417 144.56C106.569 144.787 106.65 145.054 106.65 145.326C106.655 145.511 106.623 145.695 106.556 145.867C106.489 146.039 106.388 146.196 106.26 146.329C106.131 146.462 105.978 146.568 105.808 146.641C105.638 146.713 105.456 146.752 105.271 146.753V146.705Z" fill="white"/>
<path d="M136.124 115.101C135.105 115.104 134.129 115.511 133.41 116.232C132.691 116.953 132.287 117.931 132.287 118.949C132.287 121.839 136.124 126.143 136.124 126.143C136.124 126.143 139.973 121.887 139.973 118.949C139.973 117.929 139.568 116.95 138.846 116.228C138.124 115.506 137.145 115.101 136.124 115.101ZM136.124 120.328C135.851 120.328 135.585 120.247 135.358 120.096C135.131 119.944 134.955 119.729 134.85 119.477C134.746 119.225 134.718 118.948 134.772 118.68C134.825 118.413 134.956 118.167 135.149 117.974C135.342 117.781 135.588 117.65 135.855 117.597C136.123 117.544 136.4 117.571 136.652 117.675C136.904 117.78 137.119 117.956 137.271 118.183C137.422 118.41 137.503 118.677 137.503 118.949C137.502 119.129 137.465 119.306 137.395 119.471C137.324 119.637 137.222 119.786 137.094 119.912C136.966 120.038 136.815 120.137 136.648 120.205C136.482 120.272 136.304 120.306 136.124 120.304V120.328Z" fill="white"/>
<path d="M176.75 64.8879C175.729 64.8879 174.75 65.2934 174.029 66.0152C173.307 66.737 172.901 67.7159 172.901 68.7366C172.901 71.6261 176.75 75.9304 176.75 75.9304C176.75 75.9304 180.588 71.6741 180.588 68.7366C180.588 67.718 180.184 66.7408 179.464 66.0194C178.745 65.298 177.769 64.8911 176.75 64.8879ZM176.75 70.1154C176.477 70.1178 176.209 70.039 175.981 69.8889C175.753 69.7388 175.574 69.5243 175.468 69.2726C175.362 69.0209 175.333 68.7433 175.384 68.475C175.436 68.2068 175.567 67.96 175.759 67.766C175.951 67.5719 176.197 67.4394 176.465 67.3852C176.733 67.3311 177.011 67.3577 177.263 67.4617C177.516 67.5657 177.732 67.7424 177.884 67.9694C178.036 68.1964 178.117 68.4634 178.117 68.7366C178.117 69.1002 177.974 69.4491 177.718 69.7074C177.462 69.9656 177.114 70.1123 176.75 70.1154Z" fill="white"/>
</svg>
